<svg width="61" height="65" viewBox="0 0 61 65" fill="none" xmlns="http://www.w3.org/2000/svg">
<path d="M57.1888 14.5378C59.6515 14.841 60.8828 15.7299 60.8828 17.2045V18.0934C60.8828 21.2355 58.8828 23.7161 54.8828 25.5353C52.6621 27.0512 51.1817 29.0908 50.4414 31.6541H49.8222L49.0535 31.4887C49.0535 30.0417 50.1781 28.1537 52.4272 25.8247C56.7404 23.5094 58.897 21.5249 58.897 19.8712C59.1959 19.5404 59.3454 19.0443 59.3454 18.3828V17.3492C59.3454 16.357 58.5767 15.6679 57.0393 15.282C56.0714 15.282 54.9468 15.8195 53.6657 16.8944C52.5126 18.1347 51.8934 19.3337 51.808 20.4913V21.2355C51.808 22.0348 52.2706 23.0684 53.1959 24.3363V24.7911H51.9788C50.84 23.661 50.2706 22.4207 50.2706 21.0701V20.326C50.2706 19.444 50.9326 18.1554 52.2564 16.4603C53.7084 15.1787 55.3525 14.5378 57.1888 14.5378ZM48.9041 33.8867C49.4165 34.0658 49.6728 34.3552 49.6728 34.7549C49.203 35.1683 48.5838 35.3751 47.8151 35.3751L47.3667 34.7549V34.4655C47.3667 34.1623 47.8792 33.9694 48.9041 33.8867Z" fill="#697586"/>
<path d="M39.9789 28.6155H40.47C40.6551 28.6568 40.7476 28.7602 40.7476 28.9256V29.2356C39.8366 31.5922 39.3811 32.8739 39.3811 33.0806C39.5519 33.0806 40.3704 32.2399 41.8366 30.5586L42.285 30.2486H42.4558L43.2245 30.4139V30.724C43.2245 30.9721 43.075 31.6129 42.7761 32.6465L43.0537 32.7912C43.3099 32.7912 44.648 32.1021 47.0679 30.724C47.4665 30.8618 47.6658 31.0065 47.6658 31.1581V31.3028C46.0715 32.6672 44.6409 33.4113 43.374 33.5354H42.6053C41.8793 33.5354 41.5163 33.2873 41.5163 32.7912C40.7049 33.5767 40.043 33.9695 39.5305 33.9695H38.4416C38.1426 33.873 37.9932 33.5767 37.9932 33.0806C38.833 30.1039 39.495 28.6155 39.9789 28.6155Z" fill="#697586"/>
<path d="M35.2384 29.2563C35.7793 29.2563 36.1352 29.7525 36.306 30.7447C36.306 30.8136 36.1565 31.5096 35.8576 32.8326C36.7117 32.5432 37.6797 31.9023 38.7615 30.9101C38.9608 30.7998 39.1672 30.7447 39.3807 30.7447C39.5943 30.855 39.7509 30.9101 39.8505 30.9101V31.1788C38.427 32.7774 36.8896 33.5768 35.2384 33.5768C35.2384 33.9489 34.8256 34.3899 33.9999 34.8998H32.612C32.2134 34.7344 32.0142 34.3967 32.0142 33.8868V33.7215C32.0142 31.985 32.7828 30.5518 34.3202 29.4217L35.2384 29.2563ZM34.9181 30.6V31.1788H35.0889V30.6H34.9181ZM34.7686 31.3442V31.923H34.9181V31.3442H34.7686ZM33.3807 32.2331L33.2312 33.7215V34.1556H33.3807C33.7651 33.9764 34.0213 33.6801 34.1494 33.2667C34.0925 33.2667 33.8362 32.9222 33.3807 32.2331Z" fill="#697586"/>
<path d="M42.1143 0.667114C42.7264 0.667114 43.0325 0.866942 43.0325 1.2666C43.0325 2.38288 40.2567 9.12879 34.7051 21.5043C33.794 23.3097 30.826 29.6697 25.8011 40.5844C25.0751 41.7558 24.7121 42.6447 24.7121 43.2511C27.6588 42.0521 31.4595 41.4526 36.1143 41.4526C39.3883 41.5353 41.0254 41.742 41.0254 42.0728V42.1968L40.8545 42.5069C38.6624 42.3967 37.0325 42.3415 35.9648 42.3415H35.3456C30.5484 42.3415 26.6552 43.2442 23.6658 45.0495C19.2388 54.3656 16.5697 59.8644 15.6587 61.5457C14.1783 63.6266 12.8402 64.6671 11.6444 64.6671H10.7476C9.72272 64.6671 9.21026 63.9229 9.21026 62.4346C9.21026 59.444 11.7725 55.0823 16.8971 49.3493C18.0075 48.1503 19.8011 46.469 22.2779 44.3054C31.0609 25.7007 37.1606 12.202 40.577 3.80923C39.4809 4.93929 35.068 10.5414 27.3385 20.6154C23.1107 25.7007 19.2672 30.0694 15.8082 33.7214C10.5839 39.1787 6.3775 41.9074 3.18887 41.9074H2.91129C1.7725 41.9074 1.09634 41.1632 0.882812 39.6749V39.2201C0.882812 35.1271 4.42731 26.3484 11.5163 12.8842C10.5768 12.8842 10.1071 12.7326 10.1071 12.4294C11.6017 10.7481 12.6836 9.90742 13.3526 9.90742H14.1213C14.3348 9.93499 14.4416 10.0315 14.4416 10.1968V10.817C6.5412 25.5078 2.59101 35.0237 2.59101 39.3648V39.6749C2.80453 40.5706 3.06076 41.0185 3.35969 41.0185C7.60171 41.0185 17.2388 31.289 32.2709 11.8299C36.5698 6.1107 39.5948 2.44489 41.3457 0.832489L42.1143 0.667114ZM10.8757 62.4346V62.91C10.8757 63.4888 11.0893 63.7782 11.5163 63.7782C12.7975 63.7782 15.3099 59.5198 19.0537 51.003C20.0786 48.9358 20.5911 47.8402 20.5911 47.7162C15.8224 52.4294 13.0964 55.7989 12.4131 57.8247C11.3882 59.6439 10.8757 61.1805 10.8757 62.4346Z" fill="#697586"/>
</svg>
