<svg width="543" height="177" viewBox="0 0 543 177" fill="none" xmlns="http://www.w3.org/2000/svg">
<path d="M530 81.125H531.812C532.229 81.125 532.667 81.5625 533.125 82.4375V84.1875C533.125 85.5625 531.333 90.375 527.75 98.625C528.5 98.625 532.25 95.3125 539 88.6875H541.25C541.833 88.7708 542.125 89.0833 542.125 89.625V90.125C535.625 97.875 530.833 101.75 527.75 101.75H526L523.75 101.375V99.125C523.75 97.75 525.521 93.0833 529.062 85.125H528.625C521.25 94.4583 517.208 99.125 516.5 99.125H513.312C512.771 99.125 512.5 98.8125 512.5 98.1875V97.6875C512.5 94.2708 514.438 90.5208 518.312 86.4375H519.625C520.25 86.5208 520.562 86.8333 520.562 87.375V88.25L520.062 89.1875H520.562C524.604 83.8125 527.75 81.125 530 81.125Z" fill="#004EEB"/>
<path d="M509.312 78.6875C509.854 78.9792 510.292 79.125 510.625 79.125V80.0625C510.625 81.3125 508.958 86.25 505.625 94.875C512.333 90.0833 516.396 87.6875 517.812 87.6875H519.125C519.75 87.8125 520.062 88.125 520.062 88.625V89.0625C519.521 89.9375 516.062 92.1875 509.688 95.8125C504.604 99.3125 502.062 102.312 502.062 104.812C491.021 132.688 483.375 146.625 479.125 146.625H478.625C475.958 146.458 474.625 145.271 474.625 143.062C476.167 133.312 481.417 121.917 490.375 108.875C492.125 106.542 495.438 103.104 500.312 98.5625L502.938 90.375C499.062 94 495.938 95.8125 493.562 95.8125H493.062C490.938 95.8125 489.875 94.75 489.875 92.625V91.8125C492.208 85.4792 495.958 82.3125 501.125 82.3125C502.625 82.3125 503.375 82.75 503.375 83.625C506.208 80.3333 508.188 78.6875 509.312 78.6875ZM493.938 92.1875V93.125C495.688 92.4167 498.688 89.5625 502.938 84.5625H502.062C498.688 84.5625 495.979 87.1042 493.938 92.1875ZM478.625 143.562C480.875 143.562 486.729 131.833 496.188 108.375C496.479 107.833 496.625 107.396 496.625 107.062C491.208 113.562 486.875 120.479 483.625 127.812C480.292 135.062 478.625 140.312 478.625 143.562Z" fill="#004EEB"/>
<path d="M490.938 60.5625H493.688V63.3125C490.812 64.1875 489 64.625 488.25 64.625H486.938C486.312 64.625 486 64.3333 486 63.75C486 63.3333 487.646 62.2708 490.938 60.5625ZM480.188 81.3125H481.938C482.396 81.3125 482.833 81.75 483.25 82.625V83.0625C483.25 84.0625 481.75 88.125 478.75 95.25V97.5C482.708 95.375 487.083 92.5417 491.875 89H492.25C492.833 89.25 493.458 89.375 494.125 89.375V90.75C488.75 95.75 483.5 99.0417 478.375 100.625H477C475.167 100.625 474.25 99.75 474.25 98C474.25 95.875 475.917 91.0625 479.25 83.5625C478.917 82.9375 478.75 82.5 478.75 82.25L480.188 81.3125Z" fill="#004EEB"/>
<path d="M461.75 80.625H463.5C465.625 80.625 466.688 81.6667 466.688 83.75C466.688 84.75 464.729 86.875 460.812 90.125C461.812 91.25 462.708 93.625 463.5 97.25C465.625 97.25 470.125 94.5625 477 89.1875H478.812C479.438 89.2292 479.75 89.5417 479.75 90.125V90.5C474.542 95.375 468.979 98.6875 463.062 100.438C462.188 102.812 460.396 104 457.688 104H455V102.188C456 100.688 457.646 99.3542 459.938 98.1875C459.938 96.5625 458.604 93.125 455.938 87.875V86.4375C456.854 82.5625 458.792 80.625 461.75 80.625ZM459.5 86.9375C461.375 85.8125 462.562 84.4583 463.062 82.875H462.688C460.562 83.75 459.5 85.1042 459.5 86.9375Z" fill="#004EEB"/>
<path d="M450.625 83H451.438C453.896 83.25 455.125 84.3125 455.125 86.1875C455.125 87.8125 451.812 89.5833 445.188 91.5C443.688 94.75 442.938 96.8542 442.938 97.8125H443.375C447 97.5625 451.938 94.7083 458.188 89.25H459.625C460.167 89.3333 460.438 89.6458 460.438 90.1875V91.0625C454.438 97.0625 449.188 100.062 444.688 100.062H442.062C439.938 100.062 438.875 99.1875 438.875 97.4375C438.875 95.8125 439.625 94 441.125 92L440.688 91.0625V90.1875C441.312 90.1875 443.562 88.1042 447.438 83.9375L450.625 83ZM448.812 87.5H449.188L451.062 85.6875C449.688 86.2708 448.938 86.875 448.812 87.5Z" fill="#004EEB"/>
<path d="M458.5 29.9375H460.25C460.875 29.9375 461.188 30.375 461.188 31.25L422.5 121.688C422.792 122.271 422.938 122.708 422.938 123L421.562 123.938H421.188C419.562 123.938 418.646 123.479 418.438 122.562C418.438 120.979 423.688 108.229 434.188 84.3125C431.521 87.1875 430.188 89.5833 430.188 91.5C428.729 91.5 426.479 93 423.438 96C421.229 97.5 419.562 98.25 418.438 98.25H415.25C414.708 98.25 414.438 97.9792 414.438 97.4375V96.9375C414.604 93.0208 417.438 88.0625 422.938 82.0625L425.188 81.6875H425.688C426.812 81.6875 428.146 82.4375 429.688 83.9375H430.188C436.354 73.8125 441.125 65.0833 444.5 57.75C449.625 47.875 453.979 38.7292 457.562 30.3125L458.5 29.9375ZM418.938 95.1875C422.104 93.4375 424.625 91.0208 426.5 87.9375V87.5C426.208 85.6667 425.771 84.75 425.188 84.75C421.812 88.4583 419.729 91.9375 418.938 95.1875Z" fill="#004EEB"/>
<path d="M374.688 84.5625C376.271 84.5625 377.312 86.0625 377.812 89.0625C377.812 89.2708 377.375 91.375 376.5 95.375C379 94.5 381.833 92.5625 385 89.5625C385.583 89.2292 386.188 89.0625 386.812 89.0625C387.438 89.3958 387.896 89.5625 388.188 89.5625V90.375C384.021 95.2083 379.521 97.625 374.688 97.625C374.688 98.75 373.479 100.083 371.062 101.625H367C365.833 101.125 365.25 100.104 365.25 98.5625V98.0625C365.25 92.8125 367.5 88.4792 372 85.0625L374.688 84.5625ZM373.75 88.625V90.375H374.25V88.625H373.75ZM373.312 90.875V92.625H373.75V90.875H373.312ZM369.25 93.5625L368.812 98.0625V99.375H369.25C370.375 98.8333 371.125 97.9375 371.5 96.6875C371.333 96.6875 370.583 95.6458 369.25 93.5625Z" fill="#004EEB"/>
<path d="M371.812 61.5H373.188C373.771 61.5833 374.062 61.875 374.062 62.375C374.062 63.6667 372.708 67.4167 370 73.625H477.188L479.438 74.0625V75.5C479.438 76.375 476.708 76.8125 471.25 76.8125H469.5L468.188 75.875H368.688C368.688 76.4167 357.125 103.562 334 157.312C334.625 157.312 334.938 157.792 334.938 158.75C333.062 162.917 331.25 165 329.5 165C328 164.75 327.25 164.292 327.25 163.625L364.688 75.875H335.812C335.229 75.875 334.938 75.5833 334.938 75C335.271 74.0833 336.188 73.625 337.688 73.625H365.062C365.562 73.625 367.521 69.75 370.938 62L371.812 61.5Z" fill="#004EEB"/>
<path d="M324.438 40.625C325.729 41.1667 326.479 41.75 326.688 42.375V43.25C326.354 45.0417 320.042 61.25 307.75 91.875C307.75 92 307.583 92.6042 307.25 93.6875C310.875 87.6875 314.354 84.6875 317.688 84.6875H319C319.667 84.6875 320.125 85.4375 320.375 86.9375C319.083 90.0625 318.021 93.2083 317.188 96.375C319.146 95.2083 322.458 92.375 327.125 87.875H328.938C329.479 87.9167 329.75 88.1875 329.75 88.6875V89.625C324.75 95 321 98.2917 318.5 99.5H314.5C314.042 99.5 313.604 99.0625 313.188 98.1875V96.375C313.188 94.9583 313.938 92.5625 315.438 89.1875H314.938C310.771 96.3542 307.625 99.9375 305.5 99.9375H304.625C303 99.9375 302.104 99.5 301.938 98.625V98.1875C303.729 91.6875 310.625 73.5208 322.625 43.6875L322.188 41.4375C323.104 40.8958 323.854 40.625 324.438 40.625Z" fill="#004EEB"/>
<path d="M295.812 83.1875C298.479 83.6875 299.812 84.75 299.812 86.375C299.438 88.5 298.854 89.5625 298.062 89.5625H295.812C295.229 89.5625 294.938 89.25 294.938 88.625C295.521 87.625 295.812 86.7083 295.812 85.875C291.979 85.875 288.542 90.2292 285.5 98.9375C285.792 99.5625 285.938 100.021 285.938 100.312H287.25C289.833 100.312 295.396 96.7292 303.938 89.5625C304.438 89.2292 305.042 89.0625 305.75 89.0625H306.188C306.771 89.1458 307.062 89.4375 307.062 89.9375V90.875C298.604 99 291.562 103.062 285.938 103.062C282.938 102.479 281.438 101.104 281.438 98.9375C284.812 88.4375 289.604 83.1875 295.812 83.1875Z" fill="#004EEB"/>
<path d="M276.875 79.25H278.25C278.833 79.375 279.125 79.6875 279.125 80.1875V80.625C275.542 88.875 273.75 94.2917 273.75 96.875H274.125C277.375 95.125 281.604 92.3958 286.812 88.6875H287.25C287.75 89.0208 288.354 89.1875 289.062 89.1875V90.5C282.229 96.5 277.125 99.5 273.75 99.5H272.375C270.542 99.5 269.625 98.625 269.625 96.875V96.375C269.625 94.25 269.938 92.6042 270.562 91.4375V90.9375H270.125C267.5 94.5625 264.812 96.375 262.062 96.375H261.125C259.542 96.375 258.625 95.9167 258.375 95V93.6875C258.375 90.1875 260.625 87.0208 265.125 84.1875C266.75 83.3125 268.25 82.875 269.625 82.875C270.958 83.2083 272.021 83.375 272.812 83.375C275.062 80.625 276.417 79.25 276.875 79.25ZM262.5 93.1875H262.875C267.375 89.3958 269.625 87.1458 269.625 86.4375L268.812 86H267.875C265.542 87.25 263.75 89.5 262.5 92.75V93.1875Z" fill="#004EEB"/>
<path d="M249.438 84.5625C251.021 84.5625 252.062 86.0625 252.562 89.0625C252.562 89.2708 252.125 91.375 251.25 95.375C253.75 94.5 256.583 92.5625 259.75 89.5625C260.333 89.2292 260.938 89.0625 261.562 89.0625C262.188 89.3958 262.646 89.5625 262.938 89.5625V90.375C258.771 95.2083 254.271 97.625 249.438 97.625C249.438 98.75 248.229 100.083 245.812 101.625H241.75C240.583 101.125 240 100.104 240 98.5625V98.0625C240 92.8125 242.25 88.4792 246.75 85.0625L249.438 84.5625ZM248.5 88.625V90.375H249V88.625H248.5ZM248.062 90.875V92.625H248.5V90.875H248.062ZM244 93.5625L243.562 98.0625V99.375H244C245.125 98.8333 245.875 97.9375 246.25 96.6875C246.083 96.6875 245.333 95.6458 244 93.5625Z" fill="#004EEB"/>
<path d="M227.938 77.5625H228.375C231.083 77.5625 232.438 79.0625 232.438 82.0625C231.562 84.0625 231.125 85.4375 231.125 86.1875C232.875 87.3542 233.938 87.9375 234.312 87.9375V89.75C234.312 90.375 233.833 91.875 232.875 94.25H233.375C239.375 90.0417 242.812 87.9375 243.688 87.9375H244.125C244.75 88.0208 245.062 88.3125 245.062 88.8125V89.75C240.021 94.5417 235.958 96.9375 232.875 96.9375H232.062C229.938 96.9375 228.875 96.0417 228.875 94.25C229.75 91.375 230.188 89.7083 230.188 89.25L229.312 88.8125C223.646 98.7292 219.583 106.375 217.125 111.75H214.438C213.854 111.75 213.562 111.479 213.562 110.938C216.312 104.312 220.5 96.0625 226.125 86.1875C225.25 86.1875 224.5 84.8125 223.875 82.0625V80.25C224.958 78.4583 226.312 77.5625 227.938 77.5625ZM227.562 81.6875L228.375 82.0625V80.75C227.833 80.7917 227.562 81.1042 227.562 81.6875Z" fill="#004EEB"/>
<path d="M204.75 81.1875H207.375L207.875 83.4375C207.542 85.0208 207.375 85.9375 207.375 86.1875C210.583 83.7292 213.312 82.5 215.562 82.5H216.375C218.833 82.5 220.062 83.7292 220.062 86.1875V87.5C220.062 88.75 219 90.6875 216.875 93.3125H217.312C218.146 93.3125 220.562 91.8125 224.562 88.8125H225.375C226 89.1042 226.479 89.25 226.812 89.25V91.5C222.062 95.125 217.25 96.9375 212.375 96.9375C210.542 98.4375 209.042 99.1875 207.875 99.1875H206.062C205.438 99.1875 205.125 98.875 205.125 98.25V97.4375C205.125 96.8542 206.938 95.7917 210.562 94.25C214.188 90.7917 216 88.375 216 87V86.1875C216 85.5625 215.688 85.25 215.062 85.25C211.271 86.2917 207.521 90.4792 203.812 97.8125C198.562 107.812 192.875 120.271 186.75 135.188H185.812L183.562 134.75V133.812C185.396 128.854 192.146 112.062 203.812 83.4375C203.812 81.9375 204.125 81.1875 204.75 81.1875Z" fill="#004EEB"/>
<path d="M182.375 81.1875H185L185.5 83.4375C185.167 85.0208 185 85.9375 185 86.1875C188.208 83.7292 190.938 82.5 193.188 82.5H194C196.458 82.5 197.688 83.7292 197.688 86.1875V87.5C197.688 88.75 196.625 90.6875 194.5 93.3125H194.938C195.771 93.3125 198.188 91.8125 202.188 88.8125H203C203.625 89.1042 204.104 89.25 204.438 89.25V91.5C199.688 95.125 194.875 96.9375 190 96.9375C188.167 98.4375 186.667 99.1875 185.5 99.1875H183.688C183.062 99.1875 182.75 98.875 182.75 98.25V97.4375C182.75 96.8542 184.562 95.7917 188.188 94.25C191.812 90.7917 193.625 88.375 193.625 87V86.1875C193.625 85.5625 193.312 85.25 192.688 85.25C188.896 86.2917 185.146 90.4792 181.438 97.8125C176.188 107.812 170.5 120.271 164.375 135.188H163.438L161.188 134.75V133.812C163.021 128.854 169.771 112.062 181.438 83.4375C181.438 81.9375 181.75 81.1875 182.375 81.1875Z" fill="#004EEB"/>
<path d="M170.125 79.25H171.5C172.083 79.375 172.375 79.6875 172.375 80.1875V80.625C168.792 88.875 167 94.2917 167 96.875H167.375C170.625 95.125 174.854 92.3958 180.062 88.6875H180.5C181 89.0208 181.604 89.1875 182.312 89.1875V90.5C175.479 96.5 170.375 99.5 167 99.5H165.625C163.792 99.5 162.875 98.625 162.875 96.875V96.375C162.875 94.25 163.188 92.6042 163.812 91.4375V90.9375H163.375C160.75 94.5625 158.062 96.375 155.312 96.375H154.375C152.792 96.375 151.875 95.9167 151.625 95V93.6875C151.625 90.1875 153.875 87.0208 158.375 84.1875C160 83.3125 161.5 82.875 162.875 82.875C164.208 83.2083 165.271 83.375 166.062 83.375C168.312 80.625 169.667 79.25 170.125 79.25ZM155.75 93.1875H156.125C160.625 89.3958 162.875 87.1458 162.875 86.4375L162.062 86H161.125C158.792 87.25 157 89.5 155.75 92.75V93.1875Z" fill="#004EEB"/>
<path d="M120.125 84.5C120.75 84.5417 121.062 84.8125 121.062 85.3125V85.8125L85.0625 170C85.6458 170 85.9375 170.438 85.9375 171.312C85.0625 173.188 83.7083 174.833 81.875 176.25H80.125C79.5 176.25 79.1875 175.792 79.1875 174.875C94.8125 138 106.208 111.458 113.375 95.25H112.938C111.312 97.4583 109.208 99.25 106.625 100.625H103.062C102.646 100.625 102.188 100.021 101.688 98.8125C103.562 93.1458 105.375 89.5625 107.125 88.0625H109.375V89L105.812 98C107.438 97 111.771 92.5 118.812 84.5H120.125Z" fill="#004EEB"/>
<path d="M126 0.3125H126.438C129.438 0.6875 130.938 2.1875 130.938 4.8125V6.125C130.938 15.2917 122.104 38.4167 104.438 75.5C84.6042 117.542 74.6875 147.375 74.6875 165V167.25L75.1875 171.75L77.4375 170.812C77.9375 171.146 78.5208 171.312 79.1875 171.312V172.625C78.5208 174.125 77.0208 174.875 74.6875 174.875C71.6875 174.875 70.1875 171.875 70.1875 165.875C70.1875 144.792 83.1042 108.188 108.938 56.0625C115.354 41.2708 120 29.875 122.875 21.875C124.708 17.625 126.062 12.5208 126.938 6.5625C126.479 3.89583 125.875 2.5625 125.125 2.5625C117.833 5.85417 107.021 17.1042 92.6875 36.3125L55.875 87.5625C52.75 91.5208 50.3333 93.5 48.625 93.5H48.1875C45.8125 93.25 44.625 92.1875 44.625 90.3125C44.625 87.4375 47.1458 72 52.1875 44C52.5208 41 52.6875 38.75 52.6875 37.25C52.3542 36.625 52.1875 36.1458 52.1875 35.8125C48.3958 39.8125 43.1458 48.5417 36.4375 62C21.5208 92.5 11.1875 112.125 5.4375 120.875C3.8125 121.167 2.625 121.312 1.875 121.312C0.625 120.896 0 120.458 0 120V119.062C0 111.396 8.125 87.5625 24.375 47.5625C22.9167 47.5625 21.8542 47.25 21.1875 46.625C22.4375 44.1667 24.5208 42.375 27.4375 41.25H30.1875L30.625 43.0625C20.625 66.9375 12.2292 90.1875 5.4375 112.812H5.875C25.9583 72.1875 39.75 46.25 47.25 35C49.4167 33.1667 51.0625 32.25 52.1875 32.25H53.125C55.8333 32.25 57.1875 34.3542 57.1875 38.5625C56.5625 45.2292 54 60.8125 49.5 85.3125C49.25 87.0208 49.125 88.25 49.125 89C55.1667 82.125 66.8542 66.2083 84.1875 41.25C92.3125 30.4583 98.3125 22.8125 102.188 18.3125C111.854 6.3125 119.792 0.3125 126 0.3125Z" fill="#004EEB"/>
</svg>
