<svg width="354" height="97" viewBox="0 0 354 97" fill="none" xmlns="http://www.w3.org/2000/svg">
<path d="M105.116 46.2224H106.175C107.462 46.2224 108.105 46.8528 108.105 48.1137C108.105 48.7189 106.919 50.0049 104.549 51.9718C105.154 52.6527 105.696 54.09 106.175 56.2839C107.462 56.2839 351.799 56.2547 352.192 54.9413C352.585 53.628 353.646 54.3354 353.646 54.3354C354.025 54.3606 354 55.0572 354 55.3965C354 55.7357 353.856 55.7357 353.856 55.7357C350.704 58.686 109.491 57.1539 105.911 58.213C105.381 59.6503 104.297 60.369 102.658 60.369H101.031V59.2721C101.636 58.3643 102.633 57.5573 104.019 56.8513C104.019 55.8678 103.212 53.7874 101.599 50.6101V49.7402C102.153 47.395 103.326 46.2224 105.116 46.2224ZM103.755 50.0428C104.889 49.3619 105.608 48.5424 105.911 47.5841H105.684C104.398 48.1137 103.755 48.9332 103.755 50.0428Z" fill="#004EEB"/>
<path d="M97.8162 45.0497C98.144 45.2262 98.4088 45.3145 98.6105 45.3145V45.8818C98.6105 46.6383 97.6019 49.6265 95.5845 54.8464C99.6444 51.9465 102.103 50.4965 102.96 50.4965H103.755C104.133 50.5722 104.322 50.7613 104.322 51.0639V51.3287C103.994 51.8582 101.901 53.2199 98.0431 55.4138C94.9667 57.532 93.4285 59.3476 93.4285 60.8606C86.746 77.7306 82.1188 86.1656 79.5467 86.1656H79.2441C77.6302 86.0647 76.8232 85.3461 76.8232 84.0096C77.7563 78.1089 80.9336 71.2121 86.3552 63.3192C87.4143 61.9071 89.419 59.8267 92.3694 57.0781L93.958 52.123C91.6129 54.3168 89.7216 55.4138 88.2843 55.4138H87.9817C86.6956 55.4138 86.0526 54.7707 86.0526 53.4847V52.993C87.4647 49.16 89.7342 47.2435 92.8611 47.2435C93.7689 47.2435 94.2228 47.5083 94.2228 48.0379C95.9375 46.0457 97.1353 45.0497 97.8162 45.0497ZM88.5112 53.2199V53.7873C89.5703 53.3586 91.3859 51.6313 93.958 48.6052H93.4285C91.3859 48.6052 89.7468 50.1435 88.5112 53.2199ZM79.2441 84.3122C80.6058 84.3122 84.1487 77.2137 89.8729 63.0166C90.0494 62.6888 90.1377 62.424 90.1377 62.2223C86.8595 66.1561 84.237 70.3421 82.2701 74.7802C80.2527 79.168 79.2441 82.3453 79.2441 84.3122Z" fill="#004EEB"/>
<path d="M80.568 48.6053C81.5263 48.6053 82.1567 49.5132 82.4593 51.3288C82.4593 51.4548 82.1945 52.7283 81.665 55.1491C83.178 54.6195 84.8927 53.447 86.8092 51.6314C87.1622 51.4296 87.5279 51.3288 87.9061 51.3288C88.2844 51.5305 88.5618 51.6314 88.7383 51.6314V52.1231C86.2166 55.0482 83.4932 56.5108 80.568 56.5108C80.568 57.1917 79.8368 57.9986 78.3742 58.9316H75.9155C75.2095 58.629 74.8564 58.0112 74.8564 57.0782V56.7756C74.8564 53.5983 76.2182 50.9757 78.9416 48.9079L80.568 48.6053ZM80.0007 51.064V52.1231H80.3033V51.064H80.0007ZM79.7359 52.4257V53.4848H80.0007V52.4257H79.7359ZM77.2773 54.0522L77.0125 56.7756V57.5699H77.2773C77.9581 57.2421 78.412 56.6999 78.639 55.9434C78.5381 55.9434 78.0842 55.313 77.2773 54.0522Z" fill="#004EEB"/>
<path d="M89.9857 0H90.5531C91.0826 0 91.3474 0.353035 91.3474 1.0591C90.4396 3.7573 88.5231 7.30025 85.598 11.688C85.598 12.0914 83.9715 15.7226 80.7185 22.5816C71.2622 43.4107 66.4584 55.8551 66.3071 59.915C66.4584 60.2933 66.5341 60.558 66.5341 60.7093H66.8367C67.7697 60.7093 70.8462 57.6203 76.066 51.4422C76.4191 51.2657 76.7973 51.1774 77.2008 51.1774H77.4277C77.806 51.2531 77.9951 51.4422 77.9951 51.7448V52.3122C73.2796 58.9946 69.2953 62.3358 66.0424 62.3358C64.7563 62.3358 64.1133 61.718 64.1133 60.4824V59.3476C64.1133 54.4304 72.2835 34.7361 88.624 0.264776L89.9857 0Z" fill="#004EEB"/>
<path d="M71.3382 1.05908H74.0616C79.3824 1.05908 83.2027 3.61858 85.5226 8.73759C85.9009 10.3515 86.09 11.524 86.09 12.2553V13.0497C86.09 21.9764 78.4493 29.6927 63.168 36.1986C61.428 37.1064 58.7929 38.1025 55.2625 39.1868V39.4894C57.759 40.2459 60.0285 42.2507 62.0711 45.5036C62.8023 47.5714 63.168 49.387 63.168 50.9504V52.3121C63.168 58.2885 59.9907 62.9914 53.636 66.4209C50.5596 67.5305 47.4706 68.0852 44.3689 68.0852C37.4595 68.0852 32.7566 64.7188 30.2601 57.9859C30.8149 57.6329 31.3444 57.4564 31.8488 57.4564C33.2105 57.4564 34.2065 58.7298 34.837 61.2767C37.5351 64.7062 40.3594 66.4209 43.3098 66.4209H45.4658C51.8204 66.4209 56.5486 63.1554 59.6502 56.6242C60.1798 54.6825 60.4446 53.2452 60.4446 52.3121V50.9504C60.4446 46.3358 57.9103 42.7802 52.8417 40.2838H48.7566C48.3784 40.2838 48.1892 40.1072 48.1892 39.7542C48.1892 38.9725 50.0931 38.3295 53.9008 37.8251C68.93 32.7313 78.1089 26.6667 81.4375 19.6312C82.7236 17.4626 83.3666 15.357 83.3666 13.3144V12.2553C83.3666 7.64066 80.7188 4.46334 75.4233 2.72339L72.1704 2.42079C68.3626 2.42079 62.7267 5.88809 55.2625 12.8227C44.9741 24.4224 37.4469 34.4839 32.6809 43.0072C28.6715 49.0088 24.7629 55.5525 20.9551 62.6384C15.6092 71.7921 9.70845 83.0388 3.25296 96.3784L1.89126 96.681H1.09693C0.819545 96.681 0.453902 96.3154 0 95.5841C0 91.7764 6.98504 76.1546 20.9551 48.7188C31.1175 29.1253 36.6526 18.1434 37.5604 15.7731L37.0686 15.5461C38.279 12.974 39.5399 11.6879 40.8512 11.6879C41.5824 11.9905 41.9481 12.2679 41.9481 12.5201C41.2168 14.6383 35.0513 27.0702 23.4516 49.8157C14.6257 66.9883 9.89758 76.5202 9.26716 78.4115C9.64541 78.2602 11.6501 74.5533 15.2814 67.2909C39.9433 23.1364 58.629 1.05908 71.3382 1.05908Z" fill="#004EEB"/>
</svg>
