<svg width="323" height="90" viewBox="0 0 323 90" fill="none" xmlns="http://www.w3.org/2000/svg">
<path fill-rule="evenodd" clip-rule="evenodd" d="M65.0934 0H64.8681C61.6719 0 57.5855 3.08896 52.6088 9.26688C50.6139 11.5836 47.5249 15.5199 43.342 21.0757C34.4183 33.9249 28.4013 42.1193 25.2909 45.6587C25.2909 45.2726 25.3552 44.6398 25.4839 43.7603C27.8006 31.147 29.1199 23.1243 29.4416 19.6921C29.4416 17.5256 28.7445 16.4423 27.3502 16.4423H26.8675C26.2883 16.4423 25.441 16.9142 24.3256 17.858C20.4644 23.6498 13.364 37.0032 3.02461 57.918H2.79937C6.2959 46.27 10.6183 34.3003 15.7666 22.0088L15.5413 21.0757H14.1256C12.624 21.6549 11.5514 22.5773 10.9079 23.8429C11.2511 24.1647 11.7981 24.3256 12.5489 24.3256C4.18297 44.9186 0 57.1887 0 61.1357V61.6183C0 61.8543 0.321767 62.0795 0.9653 62.294C1.35142 62.294 1.96278 62.2189 2.79937 62.0688C5.75962 57.5641 11.0795 47.4606 18.759 31.7584C22.2126 24.8297 24.9155 20.3357 26.8675 18.2763C26.8675 18.448 26.9533 18.6946 27.1249 19.0164C27.1249 19.7887 27.0391 20.947 26.8675 22.4915C24.2719 36.9066 22.9741 44.8543 22.9741 46.3344C22.9741 47.2997 23.5855 47.8467 24.8082 47.9754H25.0334C25.9129 47.9754 27.1571 46.9565 28.7659 44.9186L47.718 18.5338C55.0972 8.6448 60.6637 2.853 64.4177 1.15836C64.8038 1.15836 65.1148 1.8448 65.3508 3.21767C64.9003 6.28518 64.2032 8.91294 63.2593 11.1009C61.7792 15.2196 59.3874 21.0864 56.0839 28.7016C42.7842 55.5369 36.1344 74.3817 36.1344 85.236C36.1344 88.325 36.9066 89.8694 38.4511 89.8694C39.6524 89.8694 40.4246 89.4833 40.7678 88.7111V88.0354C40.4246 88.0354 40.1243 87.9496 39.8669 87.7779L38.7085 88.2606L38.4511 85.9439V84.7855C38.4511 75.7117 43.5565 60.3527 53.7672 38.7085C62.8625 19.617 67.4101 7.71167 67.4101 2.99243V2.31672C67.4101 0.9653 66.6379 0.19306 65.0934 0ZM99.4898 2.02704H99.9724C100.423 2.02704 100.648 2.32735 100.648 2.92799C99.8759 5.22325 98.2456 8.23713 95.7573 11.9696C95.7573 12.3128 94.3737 15.4018 91.6065 21.2365C86.5307 32.4168 83.0307 40.7573 81.1064 46.258C81.1135 46.2834 81.117 46.3088 81.117 46.3344V46.5597C81.0899 46.5837 81.0628 46.6076 81.0356 46.6313C81.0075 46.656 80.9794 46.6805 80.9514 46.7049C79.9272 49.6837 79.3925 51.7803 79.3472 52.9949C79.4759 53.3166 79.5403 53.5419 79.5403 53.6706H79.7977C80.549 53.6706 82.9344 51.3157 86.9538 46.6059C87.4194 45.3749 88.4878 44.2333 90.1592 43.181C90.9958 42.7305 91.768 42.5053 92.4759 42.5053C93.1623 42.6769 93.7093 42.7627 94.1169 42.7627C95.2753 41.3469 95.9724 40.639 96.2084 40.639H96.9163C97.2166 40.7034 97.3667 40.8643 97.3667 41.1217V41.3469C95.5219 45.5942 94.5995 48.3829 94.5995 49.7129H94.7926C96.111 49.003 97.7423 47.9801 99.6866 46.6443C100.155 45.9004 100.766 45.1322 101.518 44.3395H102.194C102.515 44.3824 102.676 44.5433 102.676 44.8222V45.2726L102.419 45.7542C102.44 45.7548 102.461 45.7551 102.483 45.7551V45.7553H102.676C104.757 42.9881 106.376 41.6045 107.535 41.6045H108.468C108.682 41.6045 108.908 41.8297 109.144 42.2802V43.1811C109.144 43.889 108.221 46.3666 106.376 50.614C106.731 50.614 108.386 49.1779 111.341 46.3057C111.859 45.1888 112.886 44.1472 114.42 43.181C115.257 42.7305 116.029 42.5053 116.737 42.5053C117.424 42.6769 117.971 42.7627 118.378 42.7627C119.536 41.3469 120.234 40.639 120.47 40.639H121.177C121.478 40.7034 121.628 40.8643 121.628 41.1217V41.3469C119.783 45.5942 118.861 48.3829 118.861 49.7129H119.054C120.727 48.8119 122.904 47.4069 125.586 45.4977H125.808L128.353 38.9017H113.487C113.187 38.9017 113.037 38.7515 113.037 38.4512C113.208 37.9793 113.68 37.7433 114.452 37.7433H128.546C128.803 37.7433 129.811 35.7484 131.57 31.7585L132.021 31.501H132.729C133.029 31.5439 133.179 31.6941 133.179 31.9515C133.179 32.6165 132.482 34.5471 131.088 37.7433H320.982L322.14 37.9685V38.7086C322.14 39.1591 320.735 39.3843 317.925 39.3843H317.024L316.348 38.9017H130.412C130.412 38.9591 130.076 39.7642 129.48 41.1925C127.184 46.698 121.025 61.4625 115.353 78.3503C115.675 78.3503 115.836 78.597 115.836 79.0904C114.871 81.2355 113.938 82.308 113.037 82.308C112.265 82.1793 111.878 81.9434 111.878 81.6002L124.832 48.0269C122.258 50.0518 120.268 51.0643 118.861 51.0643H118.153C117.209 51.0643 116.737 50.6138 116.737 49.7129V49.4554C116.737 48.3614 116.898 47.5141 117.22 46.9135V46.6561H116.995C115.643 48.5223 114.26 49.4554 112.844 49.4554H112.361C111.803 49.4554 111.406 49.3449 111.17 49.1237C109.116 51.1898 107.519 52.2228 106.376 52.2228H105.476L104.317 52.0297V50.8714C104.317 50.1635 105.229 47.761 107.052 43.6638H106.827C103.03 48.4688 100.949 50.8714 100.585 50.8714H98.9437C98.6648 50.8714 98.5254 50.7105 98.5254 50.3887V50.1313C98.5254 49.9146 98.5405 49.6953 98.5708 49.4735C96.9414 50.534 95.6177 51.0643 94.5995 51.0643H93.8917C92.9478 51.0643 92.4759 50.6138 92.4759 49.7129V49.4554C92.4759 48.3614 92.6368 47.5141 92.9585 46.9135V46.6561H92.7333C91.3819 48.5223 89.9983 49.4554 88.5825 49.4554H88.0999C87.7263 49.4554 87.4249 49.4059 87.1955 49.3068C84.085 53.1384 81.3938 55.0542 79.122 55.0542C78.028 55.0542 77.481 54.5286 77.481 53.4775V52.5122C77.481 51.7081 77.7378 50.4393 78.2516 48.706C76.9666 49.4789 75.7659 49.9219 74.6495 50.0348H73.4912C72.3972 50.0348 71.8502 49.6486 71.8502 48.8764C70.6274 50.0991 69.63 50.7105 68.8577 50.7105H67.2167C66.7663 50.5603 66.541 50.0991 66.541 49.3269C66.5919 49.1406 66.6423 48.9581 66.6924 48.7793C64.5941 50.3026 62.935 51.0643 61.7148 51.0643H61.0069C60.063 51.0643 59.5911 50.6138 59.5911 49.7129V49.4554C59.5911 48.3614 59.752 47.5141 60.0738 46.9135V46.6561H59.8485C58.4971 48.5223 57.1135 49.4554 55.6977 49.4554H55.2151C54.3999 49.4554 53.928 49.2195 53.7993 48.7476V48.0718C53.7993 46.27 54.9577 44.6397 57.2744 43.181C58.111 42.7305 58.8832 42.5053 59.5911 42.5053C60.2775 42.6769 60.8246 42.7627 61.2321 42.7627C62.3905 41.3469 63.0876 40.639 63.3236 40.639H64.0315C64.3318 40.7034 64.482 40.8643 64.482 41.1217V41.3469C62.6372 45.5942 61.7148 48.3829 61.7148 49.7129H61.9078C63.3757 48.9225 65.2316 47.7441 67.4754 46.1777C68.3081 43.6437 68.9941 42.3767 69.5334 42.3767H70.2735C70.5524 42.4411 70.6918 42.6019 70.6918 42.8594V43.342C70.259 44.4984 69.8944 45.4885 69.5981 46.3123V46.4308L69.536 46.4853C68.9337 48.1665 68.6325 49.1137 68.6325 49.3269C68.8899 49.3269 70.1234 48.0183 72.3328 45.4013L73.0085 44.9187H73.2659L74.4243 45.1761V45.6587C74.4243 46.0448 74.1991 47.0423 73.7486 48.6512L74.1669 48.8764C74.5078 48.8764 76.1201 48.04 79.0035 46.3673C81.7448 38.3569 88.1874 23.6518 98.3314 2.25228L99.4898 2.02704ZM172.178 31.0183H170.762C169.067 31.8978 168.22 32.4448 168.22 32.6593C168.22 32.9596 168.381 33.1098 168.703 33.1098H169.378C169.765 33.1098 170.698 32.8846 172.178 32.4341V31.0183ZM166.129 41.701H165.228L164.488 42.1836C164.488 42.3123 164.573 42.5376 164.745 42.8593C163.029 46.7205 162.171 49.1981 162.171 50.2921C162.171 51.1931 162.643 51.6435 163.587 51.6435H164.295C166.933 50.8284 169.636 49.1338 172.403 46.5596V45.8517C172.06 45.8517 171.738 45.7874 171.438 45.6587H171.245C168.778 47.482 166.525 48.9407 164.488 50.0347V48.8764C166.032 45.2082 166.804 43.1167 166.804 42.6019V42.3767C166.59 41.9262 166.365 41.701 166.129 41.701ZM162.428 40.8643C162.277 40.8643 162.042 40.7892 161.72 40.639C160.754 40.639 159.896 41.4113 159.146 42.9558L158.245 42.28H157.086C155.18 42.28 153.608 43.437 152.37 45.751C147.912 48.5853 145.097 50.0025 143.926 50.0025H143.218L142.542 49.5199L142.767 48.3615C144.355 46.9457 146.511 45.4012 149.235 43.7281V43.2454C149.235 42.9236 148.463 42.6984 146.918 42.5697C145.438 42.7199 143.979 42.7949 142.542 42.7949C142.049 43.0309 141.802 43.2561 141.802 43.4706C141.802 43.7924 141.963 43.9533 142.285 43.9533H145.76V44.2107C144.927 44.6498 144.192 45.0788 143.555 45.4977H143.347C140.666 47.4069 138.489 48.8119 136.816 49.7129H136.622C136.622 48.3829 137.545 45.5942 139.39 41.3469V41.1217C139.39 40.8643 139.24 40.7034 138.939 40.639H138.231C137.995 40.639 137.298 41.3469 136.14 42.7627C135.732 42.7627 135.185 42.6769 134.499 42.5053C133.791 42.5053 133.019 42.7305 132.182 43.181C129.865 44.6397 128.707 46.27 128.707 48.0718V48.7476C128.836 49.2195 129.308 49.4554 130.123 49.4554H130.605C132.021 49.4554 133.405 48.5223 134.756 46.6561H134.981V46.9135C134.66 47.5141 134.499 48.3614 134.499 49.4554V49.7129C134.499 50.6138 134.971 51.0643 135.915 51.0643H136.622C137.614 51.0643 138.896 50.5611 140.468 49.5548C140.613 50.7542 141.691 51.3539 143.701 51.3539C145.68 51.3539 148.215 50.3245 151.305 48.2657L151.295 48.2971C151.423 49.0693 151.659 49.4554 152.002 49.4554H153.611C154.662 49.4554 156.121 48.5223 157.987 46.6561H158.245C152.667 60.1059 149.739 67.3671 149.46 68.4397V69.1476H151.037C151.681 69.1476 152.002 68.5255 152.002 67.2813C158.953 50.4422 162.428 41.6365 162.428 40.8643ZM158.245 43.6636C156.464 46.0233 154.834 47.4927 153.354 48.0718L153.611 47.5892C154.727 44.9722 156.046 43.6636 157.569 43.6636H158.245ZM131.024 47.8144H130.831V47.5892C131.474 45.916 132.397 44.7577 133.598 44.1141H134.081L134.499 44.3394C134.499 44.704 133.34 45.8624 131.024 47.8144ZM113.069 47.5892C113.224 47.1852 113.396 46.8112 113.584 46.4673C113.648 46.3916 113.712 46.3151 113.777 46.2379V46.1334C114.335 45.2236 115.022 44.5505 115.836 44.1141H116.319L116.737 44.3394C116.737 44.704 115.579 45.8624 113.262 47.8144H113.069V47.5892ZM89.0008 47.8144H88.8077V47.5892C89.4513 45.916 90.3737 44.7577 91.5749 44.1141H92.0576L92.4759 44.3394C92.4759 44.704 91.3175 45.8624 89.0008 47.8144ZM55.923 47.8144H56.116C58.4328 45.8624 59.5911 44.704 59.5911 44.3394L59.1728 44.1141H58.6902C57.4889 44.7577 56.5665 45.916 55.923 47.5892V47.8144Z" fill="#004EEB"/>
</svg>
