<svg width="306" height="162" viewBox="0 0 306 162" fill="none" xmlns="http://www.w3.org/2000/svg">
<path d="M68.0781 23.1719H72.1562C85.6562 23.1719 92.4062 31.3906 92.4062 47.8281C92.4062 68.1406 83.8438 93.0156 66.7188 122.453C50.0312 148.328 34.4062 161.266 19.8437 161.266H19.4687C7.09375 161.266 0.90625 153.828 0.90625 138.953C0.90625 123.172 7.89062 105.297 21.8594 85.3281C34.9531 70.8906 43.7188 63.1094 48.1562 61.9844H49.1406C49.6094 62.0781 49.8438 62.3125 49.8438 62.6875V63.0156C42.625 68.4219 37 73.1406 32.9688 77.1719C22.6562 88.0469 15.5781 98.6406 11.7344 108.953C6.76562 120.578 4.28125 130.906 4.28125 139.938C4.28125 150.062 7.89062 156.375 15.1094 158.875C16.3281 159.344 17.9062 159.578 19.8437 159.578C33.6562 159.578 49.6094 144.594 67.7031 114.625C81.9219 87.875 89.0312 65.7344 89.0312 48.2031V45.8125C89.0312 34.7812 84.9688 27.9063 76.8438 25.1875L70.4688 24.5781C56.9062 24.5781 42.6094 32.6562 27.5781 48.8125C23.7656 53.0938 20.3906 57.5938 17.4531 62.3125C18.5781 62.375 19.1406 62.7344 19.1406 63.3906C17.6406 64.9219 16.0625 65.6875 14.4062 65.6875H13.4219C13.0469 65.6875 12.7031 65.3594 12.3906 64.7031C15.0469 58.7969 22.2344 50.125 33.9531 38.6875C46.3281 28.3437 57.7031 23.1719 68.0781 23.1719ZM94.7969 78.625H95.8281C96.2656 78.6875 96.4844 78.9062 96.4844 79.2812C96.4844 80.25 95.4688 83.0625 93.4375 87.7188H173.828L175.516 88.0469V89.125C175.516 89.7812 173.469 90.1094 169.375 90.1094H168.062L167.078 89.4062H92.4531C92.4531 89.8125 83.7812 110.172 66.4375 150.484C66.9062 150.484 67.1406 150.844 67.1406 151.562C65.7344 154.688 64.375 156.25 63.0625 156.25C61.9375 156.062 61.375 155.719 61.375 155.219L89.4531 89.4062H67.7969C67.3594 89.4062 67.1406 89.1875 67.1406 88.75C67.3906 88.0625 68.0781 87.7188 69.2031 87.7188H89.7344C90.1094 87.7188 91.5781 84.8125 94.1406 79L94.7969 78.625ZM106.328 62.9688C107.297 63.375 107.859 63.8125 108.016 64.2812V64.9375C107.766 66.2812 103.031 78.4375 93.8125 101.406C93.8125 101.5 93.6875 101.953 93.4375 102.766C96.1562 98.2656 98.7656 96.0156 101.266 96.0156H102.25C102.75 96.0156 103.094 96.5781 103.281 97.7031C102.312 100.047 101.516 102.406 100.891 104.781C102.359 103.906 104.844 101.781 108.344 98.4062H109.703C110.109 98.4375 110.312 98.6406 110.312 99.0156V99.7188C106.562 103.75 103.75 106.219 101.875 107.125H98.875C98.5312 107.125 98.2031 106.797 97.8906 106.141V104.781C97.8906 103.719 98.4531 101.922 99.5781 99.3906H99.2031C96.0781 104.766 93.7188 107.453 92.125 107.453H91.4688C90.25 107.453 89.5781 107.125 89.4531 106.469V106.141C90.7969 101.266 95.9688 87.6406 104.969 65.2656L104.641 63.5781C105.328 63.1719 105.891 62.9688 106.328 62.9688ZM114.25 94.75H114.859C116.703 94.9375 117.625 95.7344 117.625 97.1406C117.625 98.3594 115.141 99.6875 110.172 101.125C109.047 103.562 108.484 105.141 108.484 105.859H108.812C111.531 105.672 115.234 103.531 119.922 99.4375H121C121.406 99.5 121.609 99.7344 121.609 100.141V100.797C117.109 105.297 113.172 107.547 109.797 107.547H107.828C106.234 107.547 105.438 106.891 105.438 105.578C105.438 104.359 106 103 107.125 101.5L106.797 100.797V100.141C107.266 100.141 108.953 98.5781 111.859 95.4531L114.25 94.75ZM112.891 98.125H113.172L114.578 96.7656C113.547 97.2031 112.984 97.6562 112.891 98.125ZM122.359 90.6719H122.688C124.719 90.6719 125.734 91.7969 125.734 94.0469C125.078 95.5469 124.75 96.5781 124.75 97.1406C126.062 98.0156 126.859 98.4531 127.141 98.4531V99.8125C127.141 100.281 126.781 101.406 126.062 103.188H126.438C130.938 100.031 133.516 98.4531 134.172 98.4531H134.5C134.969 98.5156 135.203 98.7344 135.203 99.1094V99.8125C131.422 103.406 128.375 105.203 126.062 105.203H125.453C123.859 105.203 123.062 104.531 123.062 103.188C123.719 101.031 124.047 99.7812 124.047 99.4375L123.391 99.1094C119.141 106.547 116.094 112.281 114.25 116.312H112.234C111.797 116.312 111.578 116.109 111.578 115.703C113.641 110.734 116.781 104.547 121 97.1406C120.344 97.1406 119.781 96.1094 119.312 94.0469V92.6875C120.125 91.3438 121.141 90.6719 122.359 90.6719ZM122.078 93.7656L122.688 94.0469V93.0625C122.281 93.0938 122.078 93.3281 122.078 93.7656ZM275.734 0.578125C276.609 0.921875 277.047 1.25 277.047 1.5625C274.141 5.84375 272.453 7.98438 271.984 7.98438C270.547 7.98438 269.312 9.21875 268.281 11.6875C260.625 22.625 249.844 45.5781 235.938 80.5469C223.188 113.953 213.625 136.562 207.25 148.375C205.562 150.625 203.875 151.75 202.188 151.75C200.312 151.75 198.953 150.859 198.109 149.078C196.734 145.203 196.047 138.672 196.047 129.484C196.047 125.172 196.734 103.906 198.109 65.6875V65.3594C198.109 64.6406 197.984 62.7344 197.734 59.6406C193.984 64.5156 184.984 83.0781 170.734 115.328C164.547 128.266 160.406 135.141 158.312 135.953H155.922C154.141 135.953 153.25 134.031 153.25 130.188C153.25 122.875 156.828 100.938 163.984 64.375C164.703 59.4063 165.953 56.9219 167.734 56.9219H168.062C169.625 57.4219 170.406 58.7813 170.406 61V61.7031H168.438C167.875 61.7031 166.75 67.2031 165.062 78.2031C159.438 104.359 156.625 122.125 156.625 131.5C156.625 131.688 156.719 132.375 156.906 133.562H157.234C163.672 122.969 173.594 102.484 187 72.1094C191.969 61.7969 195.547 56.6406 197.734 56.6406H198.438C200.469 56.6406 201.484 59.3281 201.484 64.7031V66.3906C200.109 102.266 199.422 123.203 199.422 129.203V131.5C199.422 140.094 200.219 146.172 201.812 149.734H202.188C205.375 146.922 213.688 128.469 227.125 94.375C242.375 54.2188 255.438 25.7656 266.312 9.01563C270.562 3.39063 273.703 0.578125 275.734 0.578125ZM240.953 95.9219C242.141 95.9219 242.922 97.0469 243.297 99.2969C243.297 99.4531 242.969 101.031 242.312 104.031C244.188 103.375 246.312 101.922 248.688 99.6719C249.125 99.4219 249.578 99.2969 250.047 99.2969C250.516 99.5469 250.859 99.6719 251.078 99.6719V100.281C247.953 103.906 244.578 105.719 240.953 105.719C240.953 106.562 240.047 107.562 238.234 108.719H235.188C234.312 108.344 233.875 107.578 233.875 106.422V106.047C233.875 102.109 235.562 98.8594 238.938 96.2969L240.953 95.9219ZM240.25 98.9688V100.281H240.625V98.9688H240.25ZM239.922 100.656V101.969H240.25V100.656H239.922ZM236.875 102.672L236.547 106.047V107.031H236.875C237.719 106.625 238.281 105.953 238.562 105.016C238.438 105.016 237.875 104.234 236.875 102.672ZM252.109 90.6719H252.438C254.469 90.6719 255.484 91.7969 255.484 94.0469C254.828 95.5469 254.5 96.5781 254.5 97.1406C255.812 98.0156 256.609 98.4531 256.891 98.4531V99.8125C256.891 100.281 256.531 101.406 255.812 103.188H256.188C260.688 100.031 263.266 98.4531 263.922 98.4531H264.25C264.719 98.5156 264.953 98.7344 264.953 99.1094V99.8125C261.172 103.406 258.125 105.203 255.812 105.203H255.203C253.609 105.203 252.812 104.531 252.812 103.188C253.469 101.031 253.797 99.7812 253.797 99.4375L253.141 99.1094C248.891 106.547 245.844 112.281 244 116.312H241.984C241.547 116.312 241.328 116.109 241.328 115.703C243.391 110.734 246.531 104.547 250.75 97.1406C250.094 97.1406 249.531 96.1094 249.062 94.0469V92.6875C249.875 91.3438 250.891 90.6719 252.109 90.6719ZM251.828 93.7656L252.438 94.0469V93.0625C252.031 93.0938 251.828 93.3281 251.828 93.7656ZM293.875 31.0469H295.562C295.969 31.0781 296.172 31.3125 296.172 31.75C296.172 32.1563 293.266 38.2188 287.453 49.9375C278.641 67.9375 271.094 85.2656 264.812 101.922C269.969 95.1719 273.906 91.7969 276.625 91.7969H279.297C280.578 91.7969 281.375 92.2344 281.688 93.1094V94.1875C281.688 96.2813 279.328 98.7344 274.609 101.547C272.672 102.266 271.094 102.625 269.875 102.625V102.906C269.875 106.406 270.891 108.891 272.922 110.359H273.625C275.969 110.359 280.906 106.531 288.438 98.875H289.422C289.891 99.125 290.25 99.25 290.5 99.25C290.5 100.5 288.25 103.078 283.75 106.984C279.938 110.391 276.562 112.188 273.625 112.375C270.75 112.375 268.703 110.812 267.484 107.688C267.359 105.625 267.031 104.594 266.5 104.594C261.906 112.125 257.297 121.359 252.672 132.297C252.297 132.516 251.844 132.625 251.312 132.625H250.984C250.422 132.625 250.094 132.188 250 131.312C264.844 92.4062 278.781 60.1094 291.812 34.4219C291.344 34.4219 291.109 34.1875 291.109 33.7188C291.109 33.4375 292.031 32.5469 293.875 31.0469ZM269.172 100.938C272.516 100.938 275.688 98.7813 278.688 94.4688V93.4844C276.094 93.4844 272.922 95.9688 269.172 100.938ZM291.625 92.9688H292.938C294.531 92.9688 295.328 93.75 295.328 95.3125C295.328 96.0625 293.859 97.6563 290.922 100.094C291.672 100.938 292.344 102.719 292.938 105.438C294.531 105.438 297.906 103.422 303.062 99.3906H304.422C304.891 99.4219 305.125 99.6563 305.125 100.094V100.375C301.219 104.031 297.047 106.516 292.609 107.828C291.953 109.609 290.609 110.5 288.578 110.5H286.562V109.141C287.312 108.016 288.547 107.016 290.266 106.141C290.266 104.922 289.266 102.344 287.266 98.4063V97.3281C287.953 94.4219 289.406 92.9688 291.625 92.9688ZM289.938 97.7031C291.344 96.8594 292.234 95.8438 292.609 94.6563H292.328C290.734 95.3125 289.938 96.3281 289.938 97.7031Z" fill="#004EEB"/>
</svg>
