<svg width="548" height="170" viewBox="0 0 548 170" fill="none" xmlns="http://www.w3.org/2000/svg">
<path d="M484.438 85.0625H485.25C487.708 85.3125 488.938 86.375 488.938 88.25C488.938 89.875 485.625 91.6458 479 93.5625C477.5 96.8125 476.75 98.9167 476.75 99.875H477.188C480.812 99.625 485.75 96.7708 492 91.3125H493.438C493.979 91.3958 494.25 91.7083 494.25 92.25V93.125C488.25 99.125 483 102.125 478.5 102.125H475.875C473.75 102.125 472.688 101.25 472.688 99.5C472.688 97.875 473.438 96.0625 474.938 94.0625L474.5 93.125V92.25C475.125 92.25 477.375 90.1667 481.25 86L484.438 85.0625ZM482.625 89.5625H483L484.875 87.75C483.5 88.3333 482.75 88.9375 482.625 89.5625Z" fill="#004EEB"/>
<path d="M462 79.625H462.438C465.146 79.625 466.5 81.125 466.5 84.125C465.625 86.125 465.188 87.5 465.188 88.25C466.938 89.4167 468 90 468.375 90V91.8125C468.375 92.4375 467.896 93.9375 466.938 96.3125H467.438C473.438 92.1042 476.875 90 477.75 90H478.188C478.812 90.0833 479.125 90.375 479.125 90.875V91.8125C474.083 96.6042 470.021 99 466.938 99H466.125C464 99 462.938 98.1042 462.938 96.3125C463.812 93.4375 464.25 91.7708 464.25 91.3125L463.375 90.875C457.708 100.792 453.646 108.438 451.188 113.812H448.5C447.917 113.812 447.625 113.542 447.625 113C450.375 106.375 454.562 98.125 460.188 88.25C459.312 88.25 458.562 86.875 457.938 84.125V82.3125C459.021 80.5208 460.375 79.625 462 79.625ZM461.625 83.75L462.438 84.125V82.8125C461.896 82.8542 461.625 83.1667 461.625 83.75Z" fill="#004EEB"/>
<path d="M438.625 84.6875H440.062C440.604 84.8125 440.875 85.125 440.875 85.625V86.5625C438.208 93.6875 436.875 97.5625 436.875 98.1875C437.375 98.1875 439.771 95.6458 444.062 90.5625L445.375 89.625H445.875L448.125 90.125V91.0625C448.125 91.8125 447.688 93.75 446.812 96.875L447.625 97.3125C448.375 97.3125 452.292 95.2292 459.375 91.0625C460.542 91.4792 461.125 91.9167 461.125 92.375V92.8125C456.458 96.9375 452.271 99.1875 448.562 99.5625H446.312C444.188 99.5625 443.125 98.8125 443.125 97.3125C440.75 99.6875 438.812 100.875 437.312 100.875H434.125C433.25 100.583 432.812 99.6875 432.812 98.1875C435.271 89.1875 437.208 84.6875 438.625 84.6875Z" fill="#004EEB"/>
<path d="M440.125 63.5625H441.5C442.083 63.6458 442.375 63.9375 442.375 64.4375C442.375 65.7292 441.021 69.4792 438.312 75.6875H545.5L547.75 76.125V77.5625C547.75 78.4375 545.021 78.875 539.562 78.875H537.812L536.5 77.9375H437C437 78.4792 425.438 105.625 402.312 159.375C402.938 159.375 403.25 159.854 403.25 160.812C401.375 164.979 399.562 167.062 397.812 167.062C396.312 166.812 395.562 166.354 395.562 165.688L433 77.9375H404.125C403.542 77.9375 403.25 77.6458 403.25 77.0625C403.583 76.1458 404.5 75.6875 406 75.6875H433.375C433.875 75.6875 435.833 71.8125 439.25 64.0625L440.125 63.5625Z" fill="#004EEB"/>
<path d="M417.688 81.3125H419.062C419.646 81.4375 419.938 81.75 419.938 82.25V82.6875C416.354 90.9375 414.562 96.3542 414.562 98.9375H414.938C418.188 97.1875 422.417 94.4583 427.625 90.75H428.062C428.562 91.0833 429.167 91.25 429.875 91.25V92.5625C423.042 98.5625 417.938 101.562 414.562 101.562H413.188C411.354 101.562 410.438 100.688 410.438 98.9375V98.4375C410.438 96.3125 410.75 94.6667 411.375 93.5V93H410.938C408.312 96.625 405.625 98.4375 402.875 98.4375H401.938C400.354 98.4375 399.438 97.9792 399.188 97.0625V95.75C399.188 92.25 401.438 89.0833 405.938 86.25C407.562 85.375 409.062 84.9375 410.438 84.9375C411.771 85.2708 412.833 85.4375 413.625 85.4375C415.875 82.6875 417.229 81.3125 417.688 81.3125ZM403.312 95.25H403.688C408.188 91.4583 410.438 89.2083 410.438 88.5L409.625 88.0625H408.688C406.354 89.3125 404.562 91.5625 403.312 94.8125V95.25Z" fill="#004EEB"/>
<path d="M392.562 83.1875H394.375C394.792 83.1875 395.229 83.625 395.688 84.5V86.25C395.688 87.625 393.896 92.4375 390.312 100.688C391.062 100.688 394.812 97.375 401.562 90.75H403.812C404.396 90.8333 404.688 91.1458 404.688 91.6875V92.1875C398.188 99.9375 393.396 103.812 390.312 103.812H388.562L386.312 103.438V101.188C386.312 99.8125 388.083 95.1458 391.625 87.1875H391.188C383.812 96.5208 379.771 101.188 379.062 101.188H375.875C375.333 101.188 375.062 100.875 375.062 100.25V99.75C375.062 96.3333 377 92.5833 380.875 88.5H382.188C382.812 88.5833 383.125 88.8958 383.125 89.4375V90.3125L382.625 91.25H383.125C387.167 85.875 390.312 83.1875 392.562 83.1875Z" fill="#004EEB"/>
<path d="M371.875 80.75C372.417 81.0417 372.854 81.1875 373.188 81.1875V82.125C373.188 83.375 371.521 88.3125 368.188 96.9375C374.896 92.1458 378.958 89.75 380.375 89.75H381.688C382.312 89.875 382.625 90.1875 382.625 90.6875V91.125C382.083 92 378.625 94.25 372.25 97.875C367.167 101.375 364.625 104.375 364.625 106.875C353.583 134.75 345.938 148.688 341.688 148.688H341.188C338.521 148.521 337.188 147.333 337.188 145.125C338.729 135.375 343.979 123.979 352.938 110.938C354.688 108.604 358 105.167 362.875 100.625L365.5 92.4375C361.625 96.0625 358.5 97.875 356.125 97.875H355.625C353.5 97.875 352.438 96.8125 352.438 94.6875V93.875C354.771 87.5417 358.521 84.375 363.688 84.375C365.188 84.375 365.938 84.8125 365.938 85.6875C368.771 82.3958 370.75 80.75 371.875 80.75ZM356.5 94.25V95.1875C358.25 94.4792 361.25 91.625 365.5 86.625H364.625C361.25 86.625 358.542 89.1667 356.5 94.25ZM341.188 145.625C343.438 145.625 349.292 133.896 358.75 110.438C359.042 109.896 359.188 109.458 359.188 109.125C353.771 115.625 349.438 122.542 346.188 129.875C342.854 137.125 341.188 142.375 341.188 145.625Z" fill="#004EEB"/>
<path d="M353.5 62.625H356.25V65.375C353.375 66.25 351.562 66.6875 350.812 66.6875H349.5C348.875 66.6875 348.562 66.3958 348.562 65.8125C348.562 65.3958 350.208 64.3333 353.5 62.625ZM342.75 83.375H344.5C344.958 83.375 345.396 83.8125 345.812 84.6875V85.125C345.812 86.125 344.312 90.1875 341.312 97.3125V99.5625C345.271 97.4375 349.646 94.6042 354.438 91.0625H354.812C355.396 91.3125 356.021 91.4375 356.688 91.4375V92.8125C351.312 97.8125 346.062 101.104 340.938 102.688H339.562C337.729 102.688 336.812 101.812 336.812 100.062C336.812 97.9375 338.479 93.125 341.812 85.625C341.479 85 341.312 84.5625 341.312 84.3125L342.75 83.375Z" fill="#004EEB"/>
<path d="M352.375 0H353.688C364.688 0 371.604 3.60417 374.438 10.8125C375.062 13.4792 375.375 15.4167 375.375 16.625V19.3125C375.375 30.8958 368.312 43.8125 354.188 58.0625C348.938 62.0625 344.583 65.0625 341.125 67.0625H338.438C337.979 67.0625 337.542 66.625 337.125 65.75C338.042 63 340.125 61.625 343.375 61.625C356 53.125 364.688 41.5833 369.438 27C370.396 24.5833 370.875 22.0208 370.875 19.3125V16.625C370.875 9.79167 367.396 5.29167 360.438 3.125C358.188 2.54167 356.104 2.25 354.188 2.25H351.438C324.062 2.25 306.812 20.4167 299.688 56.75C297.646 66.125 295.271 84.5625 292.562 112.062C304.688 104.062 320.292 96.875 339.375 90.5H341.125C341.75 90.5417 342.062 90.8125 342.062 91.3125V92.75C322.812 98.75 306 106.833 291.625 117C287.458 152.083 275.771 169.625 256.562 169.625H256.125C252.167 169.25 250.188 167.75 250.188 165.125V164.75C250.188 155.375 259.812 141.25 279.062 122.375C284.771 118 287.625 115.458 287.625 114.75C291.5 75.7083 295.521 50.375 299.688 38.75C308.938 12.9167 326.5 0 352.375 0ZM254.688 163.312V166.062C254.688 166.938 255.312 167.375 256.562 167.375C265.438 167.375 273.229 160.938 279.938 148.062C284.438 134.479 286.688 125.312 286.688 120.562C272.229 133.521 262.792 144.5 258.375 153.5C255.917 158.25 254.688 161.521 254.688 163.312Z" fill="#004EEB"/>
<path d="M239.312 83.1875H241.125C241.542 83.1875 241.979 83.625 242.438 84.5V86.25C242.438 87.625 240.646 92.4375 237.062 100.688C237.812 100.688 241.562 97.375 248.312 90.75H250.562C251.146 90.8333 251.438 91.1458 251.438 91.6875V92.1875C244.938 99.9375 240.146 103.812 237.062 103.812H235.312L233.062 103.438V101.188C233.062 99.8125 234.833 95.1458 238.375 87.1875H237.938C230.562 96.5208 226.521 101.188 225.812 101.188H222.625C222.083 101.188 221.812 100.875 221.812 100.25V99.75C221.812 96.3333 223.75 92.5833 227.625 88.5H228.938C229.562 88.5833 229.875 88.8958 229.875 89.4375V90.3125L229.375 91.25H229.875C233.917 85.875 237.062 83.1875 239.312 83.1875Z" fill="#004EEB"/>
<path d="M218.625 80.75C219.167 81.0417 219.604 81.1875 219.938 81.1875V82.125C219.938 83.375 218.271 88.3125 214.938 96.9375C221.646 92.1458 225.708 89.75 227.125 89.75H228.438C229.062 89.875 229.375 90.1875 229.375 90.6875V91.125C228.833 92 225.375 94.25 219 97.875C213.917 101.375 211.375 104.375 211.375 106.875C200.333 134.75 192.688 148.688 188.438 148.688H187.938C185.271 148.521 183.938 147.333 183.938 145.125C185.479 135.375 190.729 123.979 199.688 110.938C201.438 108.604 204.75 105.167 209.625 100.625L212.25 92.4375C208.375 96.0625 205.25 97.875 202.875 97.875H202.375C200.25 97.875 199.188 96.8125 199.188 94.6875V93.875C201.521 87.5417 205.271 84.375 210.438 84.375C211.938 84.375 212.688 84.8125 212.688 85.6875C215.521 82.3958 217.5 80.75 218.625 80.75ZM203.25 94.25V95.1875C205 94.4792 208 91.625 212.25 86.625H211.375C208 86.625 205.292 89.1667 203.25 94.25ZM187.938 145.625C190.188 145.625 196.042 133.896 205.5 110.438C205.792 109.896 205.938 109.458 205.938 109.125C200.521 115.625 196.188 122.542 192.938 129.875C189.604 137.125 187.938 142.375 187.938 145.625Z" fill="#004EEB"/>
<path d="M200.25 62.625H203V65.375C200.125 66.25 198.312 66.6875 197.562 66.6875H196.25C195.625 66.6875 195.312 66.3958 195.312 65.8125C195.312 65.3958 196.958 64.3333 200.25 62.625ZM189.5 83.375H191.25C191.708 83.375 192.146 83.8125 192.562 84.6875V85.125C192.562 86.125 191.062 90.1875 188.062 97.3125V99.5625C192.021 97.4375 196.396 94.6042 201.188 91.0625H201.562C202.146 91.3125 202.771 91.4375 203.438 91.4375V92.8125C198.062 97.8125 192.812 101.104 187.688 102.688H186.312C184.479 102.688 183.562 101.812 183.562 100.062C183.562 97.9375 185.229 93.125 188.562 85.625C188.229 85 188.062 84.5625 188.062 84.3125L189.5 83.375Z" fill="#004EEB"/>
<path d="M171.062 82.6875H172.812C174.938 82.6875 176 83.7292 176 85.8125C176 86.8125 174.042 88.9375 170.125 92.1875C171.125 93.3125 172.021 95.6875 172.812 99.3125C174.938 99.3125 179.438 96.625 186.312 91.25H188.125C188.75 91.2917 189.062 91.6042 189.062 92.1875V92.5625C183.854 97.4375 178.292 100.75 172.375 102.5C171.5 104.875 169.708 106.062 167 106.062H164.312V104.25C165.312 102.75 166.958 101.417 169.25 100.25C169.25 98.625 167.917 95.1875 165.25 89.9375V88.5C166.167 84.625 168.104 82.6875 171.062 82.6875ZM168.812 89C170.688 87.875 171.875 86.5208 172.375 84.9375H172C169.875 85.8125 168.812 87.1667 168.812 89Z" fill="#004EEB"/>
<path d="M159.938 85.0625H160.75C163.208 85.3125 164.438 86.375 164.438 88.25C164.438 89.875 161.125 91.6458 154.5 93.5625C153 96.8125 152.25 98.9167 152.25 99.875H152.688C156.312 99.625 161.25 96.7708 167.5 91.3125H168.938C169.479 91.3958 169.75 91.7083 169.75 92.25V93.125C163.75 99.125 158.5 102.125 154 102.125H151.375C149.25 102.125 148.188 101.25 148.188 99.5C148.188 97.875 148.938 96.0625 150.438 94.0625L150 93.125V92.25C150.625 92.25 152.875 90.1667 156.75 86L159.938 85.0625ZM158.125 89.5625H158.5L160.375 87.75C159 88.3333 158.25 88.9375 158.125 89.5625Z" fill="#004EEB"/>
<path d="M138.562 10.625H143.562C152.438 10.625 158.271 16.1458 161.062 27.1875C161.688 30.1875 162 33.1875 162 36.1875C162 58.9375 150.917 82.3542 128.75 106.438C113.542 120.312 99.125 128.875 85.5 132.125C77.125 134.792 66.4792 136.125 53.5625 136.125C36.4792 136.125 18.7917 133.562 0.5 128.438C0.5 128.146 0.333333 127.708 0 127.125C1.08333 126.208 2.89583 125.75 5.4375 125.75H7.25C9.91667 125.75 11.25 126.646 11.25 128.438C28.375 132.062 42.625 133.875 54 133.875C81.5 133.875 105.062 124.125 124.688 104.625C146.562 81.375 157.5 58.5625 157.5 36.1875C157.5 25.5208 154.354 18.3333 148.062 14.625C145.854 13.4583 143.312 12.875 140.438 12.875C129.812 12.875 117.938 18.125 104.812 28.625C92.3958 40.4167 83.5625 50.9167 78.3125 60.125C73.9792 66.75 67.9792 79.0208 60.3125 96.9375L46.3125 126.688H43.6875C43.1875 126.688 42.7292 126.25 42.3125 125.375C50.4792 102.542 59.625 82.5625 69.75 65.4375C71.875 61.3125 78.0417 47.8125 88.25 24.9375C87.7917 24.9375 87.1875 24.6667 86.4375 24.125C87.2708 22.25 88.8958 20.2708 91.3125 18.1875H94.0625C94.6875 18.1875 95 18.6667 95 19.625C90.5 30.625 86.75 39.1458 83.75 45.1875H84.1875C102.562 22.1458 120.688 10.625 138.562 10.625Z" fill="#004EEB"/>
</svg>
