<svg width="149" height="86" viewBox="0 0 149 86" fill="none" xmlns="http://www.w3.org/2000/svg">
<path d="M40.5429 8.47598L41.1157 8.43592C45.9165 8.10022 49.0451 9.46212 50.5017 12.5216C50.8558 13.6664 51.0513 14.5024 51.0882 15.0298L51.1702 16.2027C51.5237 21.2581 48.8356 27.1109 43.1059 33.7611C40.9367 35.6671 39.1279 37.1093 37.6796 38.0877L36.5067 38.1697C36.3067 38.1837 36.1024 38.0061 35.8938 37.6369C36.21 36.4088 37.0772 35.7451 38.4957 35.6459C43.7462 31.5509 47.1855 26.2486 48.8135 19.739C49.158 18.655 49.2889 17.522 49.2063 16.34L49.1243 15.1671C48.9157 12.1848 47.26 10.327 44.157 9.59378C43.1572 9.40786 42.2391 9.34415 41.4026 9.40264L40.2024 9.48657C28.255 10.322 21.2809 18.777 19.2802 34.8516C18.6752 39.0054 18.2014 47.1247 17.8586 59.2093C22.9062 55.3478 29.4971 51.7347 37.6311 48.37L38.3949 48.3166C38.6689 48.3157 38.8136 48.4244 38.8289 48.6426L38.8727 49.27C30.6545 52.4761 23.5636 56.517 17.6001 61.3928C16.8524 76.8315 12.2869 84.844 3.9037 85.4302L3.71276 85.4435C1.97377 85.4007 1.06421 84.8064 0.984102 83.6608L0.972657 83.4971C0.686547 79.4056 4.45615 72.9472 12.2815 64.122C14.6393 62.0384 15.8074 60.842 15.7857 60.5329C16.2854 43.3755 17.2671 32.1965 18.7308 26.9957C21.9795 15.4389 29.2501 9.26564 40.5429 8.47598ZM2.89274 82.7324L2.97667 83.9326C3.00337 84.3145 3.28949 84.4864 3.83504 84.4482C7.70839 84.1774 10.9125 81.13 13.4473 75.3062C14.9967 69.2406 15.6989 65.1713 15.554 63.0983C9.63933 69.195 5.85555 74.2747 4.20263 78.3374C3.27469 80.4855 2.83806 81.9505 2.89274 82.7324Z" fill="#004EEB"/>
<path d="M42.5373 36.213L43.1373 36.1711C43.3945 36.1896 43.5307 36.308 43.5459 36.5262C43.5854 37.09 43.1088 38.7679 42.1162 41.5601L88.8965 38.2889L89.8919 38.4112L89.9357 39.0385C89.9624 39.4204 88.7847 39.6947 86.4025 39.8612L85.6387 39.9146L85.0373 39.5455L41.6121 42.5821C41.6286 42.8185 37.4108 55.0188 28.9586 79.1829C29.2314 79.1638 29.3824 79.3634 29.4117 79.7816C28.7205 81.6573 27.993 82.6219 27.2293 82.6753C26.567 82.6119 26.2257 82.4348 26.2053 82.1438L39.8664 42.7042L27.2643 43.5854C27.0097 43.6032 26.8735 43.4848 26.8557 43.2302C26.9732 42.82 27.3593 42.592 28.014 42.5462L39.9614 41.7108C40.1796 41.6955 40.916 39.9446 42.1706 36.4579L42.5373 36.213Z" fill="#004EEB"/>
<path d="M42.5273 45.4785L43.1547 45.4346C43.3949 45.4726 43.5226 45.6007 43.5379 45.819L43.5665 46.2281C42.6201 49.4191 42.1565 51.151 42.1755 51.4237C42.3938 51.4085 43.3618 50.2261 45.0797 47.8766L45.6239 47.4274L45.8421 47.4121L46.8394 47.5617L46.868 47.9708C46.8909 48.2981 46.7591 49.1571 46.4725 50.5476L46.8405 50.7138C47.1678 50.6909 48.8136 49.6621 51.7779 47.6275C52.2998 47.7737 52.5677 47.9469 52.5817 48.1469L52.595 48.3378C50.6842 50.2805 48.9253 51.3903 47.3183 51.6671L46.3364 51.7358C45.4089 51.8007 44.9223 51.5058 44.8766 50.8511C43.9125 51.9601 43.1031 52.5375 42.4485 52.5833L41.0574 52.6806C40.6666 52.58 40.4483 52.2024 40.4025 51.5477C41.2008 47.5448 41.909 45.5217 42.5273 45.4785Z" fill="#004EEB"/>
<path d="M67.3509 20.6356L68.1147 20.5822C68.3874 20.5631 68.5372 20.7445 68.5639 21.1264L54.4393 61.7771C54.5844 62.0228 54.6614 62.2092 54.6703 62.3365L54.0989 62.7877L53.9352 62.7991C53.226 62.8487 52.8119 62.6766 52.693 62.2829C52.6447 61.5919 54.5469 55.8672 58.3995 45.1087C57.3235 46.4448 56.8147 47.5311 56.8732 48.3676C56.2367 48.4121 55.3005 49.1354 54.0646 50.5376C53.1465 51.2596 52.442 51.6378 51.9511 51.6721L50.5599 51.7694C50.3235 51.7859 50.1971 51.676 50.1805 51.4396L50.1653 51.2214C50.1185 49.5069 51.2037 47.2565 53.421 44.47L54.3915 44.2377L54.6097 44.2224C55.1007 44.1881 55.7055 44.4747 56.4241 45.0823L56.6424 45.0671C59.0247 40.46 60.8405 36.5047 62.0896 33.2011C64.025 28.735 65.6462 24.6105 66.9532 20.8278L67.3509 20.6356ZM52.0758 50.3203C53.4044 49.4599 54.4309 48.3282 55.1551 46.9253L55.1417 46.7344C54.9585 45.9432 54.7396 45.5565 54.485 45.5743C53.1252 47.2957 52.3221 48.8777 52.0758 50.3203Z" fill="#004EEB"/>
<path d="M67.925 44.5248C68.199 44.5239 68.3437 44.6326 68.3589 44.8508L68.3742 45.069L55.2318 82.91C55.4864 82.8922 55.6271 83.0742 55.6538 83.4561C55.3291 84.3011 54.7883 85.0607 54.0314 85.735L53.2677 85.7884C52.9949 85.8075 52.8445 85.617 52.8166 85.2169C58.5105 68.6465 62.674 56.7151 65.3071 49.4225L65.1162 49.4358C64.4744 50.4492 63.6107 51.2954 62.5252 51.9743L60.9704 52.083C60.7886 52.0957 60.5701 51.8461 60.315 51.334C60.9604 48.8036 61.6421 47.1844 62.3601 46.4763L63.342 46.4077L63.3707 46.8168L62.0905 50.8535C62.7692 50.3674 64.5231 48.2712 67.3522 44.5649L67.925 44.5248Z" fill="#004EEB"/>
<path d="M124.664 1.00384L127.419 0.811195C129.383 0.673862 130.548 1.52435 130.914 3.36267L130.983 4.34464C131.128 6.41771 129.346 9.95031 125.639 14.9425L124.466 15.0245C124.266 15.0385 124.043 14.8622 123.798 14.4955C124.758 12.5462 125.908 10.9491 127.246 9.7043C128.475 6.89559 129.061 5.08207 129.004 4.26376L128.922 3.09084C128.366 2.19775 127.488 1.79317 126.288 1.8771C122.396 2.14922 117.974 3.71933 113.021 6.58742C109.405 8.70421 105.296 12.1437 100.695 16.906C95.4236 23.0491 91.176 29.0749 87.9527 34.9834C85.737 39.3596 84.179 43.3425 83.2788 46.9323C82.9231 49.4241 82.7286 51.3473 82.6954 52.7019C83.0388 57.6118 85.4811 60.6572 90.0225 61.838L91.4136 61.7408C97.6328 61.3059 107.023 55.3864 119.583 43.9825C120.201 43.1535 120.829 42.7167 121.465 42.6722L122.461 42.7945L122.516 43.5855C122.06 43.855 119.583 46.0657 115.085 50.2177C105.53 57.5558 99.2217 61.4232 96.1612 61.8199C95.8593 62.2065 94.1683 62.5897 91.0884 62.9696C86.5058 63.29 83.2404 60.8869 81.2921 55.7604C81.1347 55.077 81.0343 54.4261 80.9911 53.8078L80.8824 52.253C80.3114 44.0881 85.8879 32.6334 97.6119 17.8891C103.132 11.8931 107.662 7.95806 111.204 6.08402C116.304 2.96809 120.791 1.27469 124.664 1.00384Z" fill="#004EEB"/>
<path d="M127.993 38.022L128.593 37.98C128.851 38.0168 128.988 38.1443 129.003 38.3625L129.017 38.5534C127.705 42.2634 127.088 44.682 127.167 45.8095L127.33 45.7981C128.695 44.9351 130.458 43.6149 132.618 41.8375L132.809 41.8242C133.037 41.9544 133.306 42.0087 133.615 41.9871L133.655 42.5599C130.856 45.3871 128.72 46.8521 127.247 46.9551L126.647 46.9971C125.847 47.0531 125.42 46.6992 125.366 45.9354L125.351 45.7172C125.286 44.7898 125.372 44.0619 125.61 43.5337L125.594 43.3154L125.403 43.3288C124.368 44.991 123.251 45.864 122.051 45.948L121.641 45.9766C120.95 46.0249 120.536 45.8528 120.399 45.4604L120.359 44.8876C120.252 43.3601 121.138 41.9094 123.015 40.5355C123.698 40.104 124.339 39.8673 124.939 39.8253C125.531 39.9301 126 39.9704 126.346 39.9463C127.244 38.6774 127.793 38.036 127.993 38.022ZM122.144 44.5435L122.308 44.532C124.156 42.7399 125.07 41.6892 125.048 41.3801L124.68 41.214L124.271 41.2426C123.291 41.8593 122.577 42.896 122.131 44.3525L122.144 44.5435Z" fill="#004EEB"/>
<path d="M133.872 38.2139L134.636 38.1605C135.563 38.0956 136.059 38.5178 136.122 39.4271C136.153 39.8635 135.363 40.8507 133.753 42.3886C134.223 42.8491 134.687 43.8583 135.143 45.4162C136.071 45.3514 137.952 44.0411 140.789 41.4855L141.58 41.4301C141.854 41.4292 142 41.5561 142.018 41.8107L142.029 41.9743C139.905 44.2609 137.578 45.8764 135.049 46.8207C134.74 47.8839 133.994 48.4569 132.812 48.5395L131.639 48.6215L131.584 47.8305C131.975 47.1453 132.652 46.5132 133.617 45.9341C133.567 45.2249 132.88 43.7653 131.556 41.5554L131.513 40.9281C131.794 39.2089 132.581 38.3042 133.872 38.2139ZM133.083 41.0375C133.867 40.4893 134.344 39.8621 134.513 39.1558L134.35 39.1673C133.449 39.614 133.027 40.2374 133.083 41.0375Z" fill="#004EEB"/>
<path d="M144.037 38.5447L144.392 38.5199C145.472 38.554 146.041 38.9802 146.098 39.7985C146.148 40.5077 144.756 41.3816 141.923 42.4203C141.368 43.8845 141.105 44.8257 141.134 45.244L141.325 45.2306C142.899 45.0109 144.967 43.6145 147.528 41.0416L148.156 40.9977C148.395 41.0176 148.522 41.1457 148.539 41.3821L148.566 41.764C146.13 44.5657 143.93 46.0352 141.966 46.1725L140.821 46.2527C139.893 46.3175 139.403 45.9681 139.35 45.2043C139.3 44.4951 139.572 43.6812 140.166 42.7625L139.946 42.3667L139.919 41.9848C140.192 41.9658 141.11 40.9879 142.674 39.0511L144.037 38.5447ZM143.383 40.5639L143.547 40.5525L144.31 39.7042C143.728 40.0008 143.419 40.2874 143.383 40.5639Z" fill="#004EEB"/>
</svg>
