<svg width="381" height="101" viewBox="0 0 381 101" fill="none" xmlns="http://www.w3.org/2000/svg">
<path d="M184.355 49.0438H184.804C186.164 49.1821 186.844 49.7696 186.844 50.8065C186.844 51.7051 185.012 52.6844 181.348 53.7443C180.519 55.5415 180.104 56.7051 180.104 57.2351H180.346C182.351 57.0968 185.081 55.5185 188.537 52.5H189.332C189.632 52.5461 189.781 52.7189 189.781 53.0185V53.5024C186.463 56.8203 183.56 58.4793 181.072 58.4793H179.62C178.445 58.4793 177.857 57.9954 177.857 57.0277C177.857 56.1291 178.272 55.1268 179.102 54.0208L178.86 53.5024V53.0185C179.205 53.0185 180.45 51.8664 182.592 49.5623L184.355 49.0438ZM183.353 51.5323H183.56L184.597 50.53C183.837 50.8526 183.422 51.1867 183.353 51.5323Z" fill="#004EEB"/>
<path d="M171.567 47.7305H172.534C173.71 47.7305 174.297 48.3065 174.297 49.4586C174.297 50.0116 173.214 51.1867 171.048 52.9839C171.601 53.606 172.097 54.9194 172.534 56.924C173.71 56.924 176.198 55.4378 180 52.4655H181.002C181.348 52.4885 181.521 52.6613 181.521 52.9839V53.1913C178.64 55.8872 175.564 57.719 172.293 58.6867C171.809 60.0001 170.818 60.6567 169.32 60.6567H167.834V59.6544C168.387 58.8249 169.297 58.0876 170.564 57.4425C170.564 56.5438 169.827 54.6429 168.352 51.7397V50.9448C168.859 48.8019 169.931 47.7305 171.567 47.7305ZM170.322 51.2213C171.359 50.5991 172.016 49.8503 172.293 48.9747H172.085C170.91 49.4586 170.322 50.2074 170.322 51.2213Z" fill="#004EEB"/>
<path d="M164.171 46.9701H164.931C165.254 47.0392 165.415 47.212 165.415 47.4885V47.7305C163.434 52.2927 162.443 55.2881 162.443 56.7166H162.65C164.447 55.7489 166.786 54.2397 169.666 52.189H169.908C170.185 52.3733 170.519 52.4655 170.91 52.4655V53.1913C167.132 56.5093 164.309 58.1683 162.443 58.1683H161.682C160.669 58.1683 160.162 57.6844 160.162 56.7166V56.4401C160.162 55.265 160.334 54.3549 160.68 53.7097V53.4332H160.438C158.987 55.4378 157.5 56.4401 155.98 56.4401H155.461C154.586 56.4401 154.079 56.1867 153.94 55.6798V54.954C153.94 53.0185 155.185 51.2673 157.673 49.7005C158.572 49.2166 159.401 48.9747 160.162 48.9747C160.899 49.159 161.487 49.2512 161.924 49.2512C163.169 47.7305 163.917 46.9701 164.171 46.9701ZM156.222 54.6775H156.429C158.917 52.5807 160.162 51.3365 160.162 50.9448L159.712 50.7028H159.194C157.904 51.3941 156.913 52.6383 156.222 54.4355V54.6775Z" fill="#004EEB"/>
<path d="M163.237 0H166.728C169.216 0 170.61 1.17512 170.91 3.52535V4.76959C170.91 7.39632 168.352 11.6936 163.237 17.6613H161.751C161.498 17.6613 161.233 17.4194 160.956 16.9355C162.339 14.5622 163.928 12.6498 165.726 11.1982C167.523 7.76498 168.422 5.52996 168.422 4.49309V3.00691C167.799 1.8318 166.728 1.24424 165.207 1.24424C160.276 1.24424 154.562 2.8341 148.064 6.01383C143.318 8.36406 137.834 12.3387 131.613 17.9378C124.424 25.2189 118.537 32.4424 113.951 39.6083C110.772 44.9309 108.456 49.8157 107.004 54.2627C106.336 57.3733 105.922 59.7812 105.76 61.4862C105.76 67.7074 108.571 71.7627 114.193 73.6521H115.956C123.836 73.6521 136.198 67.0162 153.041 53.7443C153.894 52.7535 154.723 52.2581 155.53 52.2581L156.774 52.5V53.5023C156.175 53.8019 152.857 56.371 146.82 61.2097C134.124 69.6199 125.829 73.9401 121.935 74.1706C121.521 74.6314 119.355 74.9655 115.438 75.1729C109.631 75.1729 105.726 71.8549 103.721 65.2189C103.583 64.3434 103.514 63.5139 103.514 62.7305V60.7604C103.514 50.4148 111.555 36.4632 127.638 18.9055C135.127 11.8318 141.187 7.26959 145.818 5.2189C152.523 1.73963 158.329 0 163.237 0Z" fill="#004EEB"/>
<path d="M87.857 49.8733C88.2026 49.8963 88.3754 50.0461 88.3754 50.3226V50.5991L68.4676 97.1544C68.7902 97.1544 68.9515 97.3964 68.9515 97.8802C68.4676 98.9171 67.7188 99.8272 66.7049 100.611H65.7372C65.3916 100.611 65.2188 100.357 65.2188 99.8503C73.8593 79.4586 80.1612 64.7811 84.1243 55.818H83.8824C82.9837 57.0392 81.8201 58.03 80.3916 58.7903H78.4215C78.1911 58.7903 77.9377 58.4562 77.6612 57.788C78.698 54.6544 79.7003 52.6728 80.6681 51.8433H81.9123V52.3618L79.9423 57.3387C80.8409 56.7857 83.2372 54.2973 87.1312 49.8733H87.857Z" fill="#004EEB"/>
<path d="M89.2394 19.7004H90.2072C90.5528 19.7004 90.7256 19.9424 90.7256 20.4262L69.3316 70.4378C69.4929 70.7604 69.5735 71.0023 69.5735 71.1636L68.8131 71.682H68.6058C67.7072 71.682 67.2002 71.4286 67.085 70.9217C67.085 70.0461 69.9883 62.9954 75.7947 49.7696C74.3201 51.3594 73.5827 52.6843 73.5827 53.7442C72.7763 53.7442 71.532 54.5737 69.85 56.2327C68.6288 57.0622 67.7072 57.477 67.085 57.477H65.3224C65.0228 57.477 64.873 57.3272 64.873 57.0277V56.7512C64.9652 54.5853 66.532 51.8433 69.5735 48.5253L70.8178 48.318H71.0942C71.7164 48.318 72.4537 48.7327 73.3062 49.5622H73.5827C76.9929 43.9631 79.6311 39.1359 81.4975 35.0806C84.3316 29.6198 86.7394 24.5622 88.721 19.9078L89.2394 19.7004ZM67.3615 55.7834C69.1127 54.8157 70.5067 53.4793 71.5436 51.7742V51.5323C71.3823 50.5184 71.1403 50.0115 70.8178 50.0115C68.9514 52.0622 67.7993 53.9862 67.3615 55.7834Z" fill="#004EEB"/>
<path d="M55.7485 48.8364H56.5434C56.8429 48.9056 56.9927 49.0784 56.9927 49.3549V49.8733C55.5181 53.8134 54.7807 55.9562 54.7807 56.3019C55.0572 56.3019 56.3821 54.8963 58.7554 52.0853L59.4812 51.5668H59.7577L61.0019 51.8433V52.3618C61.0019 52.7765 60.76 53.848 60.2761 55.5761L60.7254 55.818C61.1402 55.818 63.3061 54.6659 67.2231 52.3618C67.8683 52.5922 68.1909 52.8341 68.1909 53.0876V53.3295C65.6102 55.6106 63.2946 56.8549 61.2439 57.0622H59.9996C58.8245 57.0622 58.2369 56.6475 58.2369 55.818C56.9236 57.1314 55.8522 57.788 55.0227 57.788H53.26C52.7761 57.6268 52.5342 57.1314 52.5342 56.3019C53.8936 51.3249 54.9651 48.8364 55.7485 48.8364Z" fill="#004EEB"/>
<path d="M56.5784 37.1544H57.3388C57.6614 37.2005 57.8227 37.3618 57.8227 37.6383C57.8227 38.3526 57.0738 40.4263 55.5761 43.8595H378.85L380.095 44.1014V44.8964C380.095 45.3802 378.585 45.6222 375.567 45.6222H374.599L373.873 45.1037H54.8503C54.8503 45.4033 48.4563 60.4148 35.6683 90.1383C36.0139 90.1383 36.1867 90.4033 36.1867 90.9333C35.1498 93.2374 34.1475 94.3895 33.1798 94.3895C32.3503 94.2512 31.9355 93.9978 31.9355 93.6291L52.6383 45.1037H36.6706C36.348 45.1037 36.1867 44.9424 36.1867 44.6199C36.371 44.1129 36.8779 43.8595 37.7074 43.8595H52.8457C53.1222 43.8595 54.2051 41.7166 56.0946 37.4309L56.5784 37.1544Z" fill="#004EEB"/>
<path d="M56.5093 2.00464H57.2351C63.318 2.00464 67.1429 3.99773 68.7097 7.98391C69.0554 9.45856 69.2282 10.53 69.2282 11.1982V12.6844C69.2282 19.0899 65.3226 26.2328 57.5116 34.113C54.6083 36.3249 52.2005 37.9839 50.2881 39.0899H48.8019C48.5484 39.0899 48.3065 38.848 48.0761 38.3641C48.583 36.8434 49.7351 36.083 51.5323 36.083C58.5139 31.3825 63.318 25 65.9448 16.9355C66.4747 15.5991 66.7397 14.1821 66.7397 12.6844V11.1982C66.7397 7.41939 64.8157 4.93091 60.9678 3.73275C59.7235 3.41017 58.5715 3.24888 57.5116 3.24888H55.9908C40.8526 3.24888 31.3134 13.295 27.3733 33.3872C26.2443 38.5715 24.9309 48.7673 23.4332 63.9747C30.1383 59.5508 38.7673 55.5761 49.3203 52.0508H50.2881C50.6337 52.0738 50.8065 52.2236 50.8065 52.5001V53.295C40.1613 56.613 30.8641 61.083 22.9148 66.7051C20.6106 86.1061 14.1475 95.8066 3.52535 95.8066H3.28341C1.09447 95.5992 0 94.7697 0 93.3181V93.1107C0 87.9264 5.32258 80.1153 15.9678 69.6775C19.1244 67.2581 20.7028 65.8526 20.7028 65.4609C22.8456 43.871 25.0691 29.8618 27.3733 23.4332C32.4885 9.1475 42.2005 2.00464 56.5093 2.00464ZM2.48848 92.3158V93.8365C2.48848 94.3204 2.8341 94.5623 3.52535 94.5623C8.43319 94.5623 12.7419 91.0024 16.4516 83.8826C18.9401 76.3711 20.1843 71.3019 20.1843 68.6752C12.1889 75.8411 6.97005 81.9125 4.52765 86.8895C3.16821 89.5162 2.48848 91.325 2.48848 92.3158Z" fill="#004EEB"/>
</svg>
