<svg width="298" height="193" viewBox="0 0 298 193" fill="none" xmlns="http://www.w3.org/2000/svg">
<path d="M122.875 26.1875H126.062C126.688 26.2708 127 26.5625 127 27.0625V27.5C127 28.625 123.521 34.1875 116.562 44.1875C86.0208 111.312 70.75 156.312 70.75 179.188C70.75 185.312 72.8333 189.062 77 190.438V191.75L74.75 192.25C70 192.25 67.2917 188.333 66.625 180.5L66.25 177.812C66.25 158.604 78.5208 120.5 103.062 63.5C57.9375 125.625 26.2917 156.688 8.125 156.688C3.04167 156.688 0.5 153.542 0.5 147.25C2.875 125.625 18.4792 90.6875 47.3125 42.4375V41.9375L46.375 40.5625C48.75 38.1875 50.5625 37 51.8125 37H53.5625C54.1875 37.0417 54.5 37.3542 54.5 37.9375V38.75C40.25 61.125 27.6667 84.6875 16.75 109.438C8.91667 127.646 5 140.562 5 148.188C5 152.354 6.1875 154.438 8.5625 154.438C17.1875 153.896 31.2917 143.25 50.875 122.5C79.5417 89.125 100.688 61.5208 114.312 39.6875C116.438 34.1458 119.292 29.6458 122.875 26.1875ZM116.312 68.5625H119.062V71.3125C116.188 72.1875 114.375 72.625 113.625 72.625H112.312C111.688 72.625 111.375 72.3333 111.375 71.75C111.375 71.3333 113.021 70.2708 116.312 68.5625ZM105.562 89.3125H107.312C107.771 89.3125 108.208 89.75 108.625 90.625V91.0625C108.625 92.0625 107.125 96.125 104.125 103.25V105.5C108.083 103.375 112.458 100.542 117.25 97H117.625C118.208 97.25 118.833 97.375 119.5 97.375V98.75C114.125 103.75 108.875 107.042 103.75 108.625H102.375C100.542 108.625 99.625 107.75 99.625 106C99.625 103.875 101.292 99.0625 104.625 91.5625C104.292 90.9375 104.125 90.5 104.125 90.25L105.562 89.3125ZM204 0.8125H205.375L207.625 1.1875V2.5625C207.625 4.39583 204.917 8.75 199.5 15.625C179.875 55.5 156.188 94.6458 128.438 133.062L116.25 147.875H116.688C139.521 142.833 166.688 140.312 198.188 140.312C241.104 140.312 274.104 144.062 297.188 151.562C297.229 152.104 297.5 152.375 298 152.375C297.75 153 297.625 153.479 297.625 153.812H290.438L288.188 153.312V151.938H289V151.562C265.875 145.562 235 142.562 196.375 142.562C163.625 142.562 135.875 145.562 113.125 151.562C99.4583 167.104 89.8333 174.875 84.25 174.875H81.625C79.0833 174.875 77.2708 172.938 76.1875 169.062C76.1875 164.312 83.375 159.062 97.75 153.312C106.208 150.688 110.708 149.042 111.25 148.375C112 147 116.5 141.312 124.75 131.312C141.5 107.938 155.167 87.2083 165.75 69.125C176.875 49.625 188.583 28.0417 200.875 4.375C202.458 2 203.5 0.8125 204 0.8125ZM80.6875 169.562C81.1875 171.604 82.1042 172.625 83.4375 172.625C89.4375 170.75 97.0833 164.312 106.375 153.312H105.938C89.1042 159.062 80.6875 164.479 80.6875 169.562ZM179.375 87.25H180.75C181.333 87.375 181.625 87.6875 181.625 88.1875V88.625C178.042 96.875 176.25 102.292 176.25 104.875H176.625C179.875 103.125 184.104 100.396 189.312 96.6875H189.75C190.25 97.0208 190.854 97.1875 191.562 97.1875V98.5C184.729 104.5 179.625 107.5 176.25 107.5H174.875C173.042 107.5 172.125 106.625 172.125 104.875V104.375C172.125 102.25 172.438 100.604 173.062 99.4375V98.9375H172.625C170 102.562 167.312 104.375 164.562 104.375H163.625C162.042 104.375 161.125 103.917 160.875 103V101.688C160.875 98.1875 163.125 95.0208 167.625 92.1875C169.25 91.3125 170.75 90.875 172.125 90.875C173.458 91.2083 174.521 91.375 175.312 91.375C177.562 88.625 178.917 87.25 179.375 87.25ZM165 101.188H165.375C169.875 97.3958 172.125 95.1458 172.125 94.4375L171.312 94H170.375C168.042 95.25 166.25 97.5 165 100.75V101.188ZM219.562 32.5C220.771 32.9167 221.375 33.3542 221.375 33.8125C221.375 34.7292 214.938 48.375 202.062 74.75L191.625 100H192.125C195.792 94.875 199.375 92.3125 202.875 92.3125H206.062C206.438 92.3125 207.188 93.0625 208.312 94.5625V95.9375C208.312 97.8958 206.375 100.896 202.5 104.938C204.75 103.896 208.042 101.333 212.375 97.25H212.812L215.062 97.75V98.6875C208.188 106.438 201.125 110.312 193.875 110.312H191.625L189.375 109.938C186.375 116.104 184 119.979 182.25 121.562H180.375L179.062 120.688C193.438 84.1458 206.188 55.6458 217.312 35.1875L216.875 34.25C217.5 33.0833 218.396 32.5 219.562 32.5ZM191.25 107.688V108.062C197.5 105.354 201.854 101.479 204.312 96.4375V95.5C204.312 94.875 204 94.5625 203.375 94.5625C200.375 95.3125 196.333 99.6875 191.25 107.688ZM216.625 88.625H218.375C220.5 88.625 221.562 89.6667 221.562 91.75C221.562 92.75 219.604 94.875 215.688 98.125C216.688 99.25 217.583 101.625 218.375 105.25C220.5 105.25 225 102.562 231.875 97.1875H233.688C234.312 97.2292 234.625 97.5417 234.625 98.125V98.5C229.417 103.375 223.854 106.688 217.938 108.438C217.062 110.812 215.271 112 212.562 112H209.875V110.188C210.875 108.688 212.521 107.354 214.812 106.188C214.812 104.562 213.479 101.125 210.812 95.875V94.4375C211.729 90.5625 213.667 88.625 216.625 88.625ZM214.375 94.9375C216.25 93.8125 217.438 92.4583 217.938 90.875H217.562C215.438 91.75 214.375 93.1042 214.375 94.9375Z" fill="#004EEB"/>
</svg>
