<svg width="71" height="74" viewBox="0 0 71 74" fill="none" xmlns="http://www.w3.org/2000/svg">
<path d="M3.18991 19.1553C0.605888 20.304 -0.29852 23.3671 0.86429 25.9197L17.1436 59.4861L26.1877 55.2743L9.90837 21.5803C8.74556 19.0277 5.77394 17.8791 3.18991 19.1553ZM45.9555 45.8298L55.5164 41.3628L36.9114 3.0741C35.6194 0.521521 32.5186 -0.62714 29.8054 0.64915C27.2213 1.92544 26.0585 4.98853 27.3505 7.66874L45.9555 45.8298Z" fill="#FFDD67"/>
<path d="M29.9349 0.521394C29.6765 0.649023 29.4181 0.776651 29.1597 1.03191C31.6145 0.393764 34.1985 1.54243 35.3613 3.83975L53.9663 42.1284L55.6459 41.3627L37.0409 3.07397C35.7489 0.393765 32.6481 -0.754896 29.9349 0.521394Z" fill="#EBA352"/>
<path d="M26.1874 55.1466L36.1359 50.4243L17.1433 11.3699C15.8513 8.68967 12.4921 7.41338 9.77883 8.68967C7.06561 9.96596 5.9028 13.2843 7.19481 15.9645L26.1874 55.1466Z" fill="#FFDD67"/>
<path d="M9.77911 8.81717C9.52071 8.94479 9.26231 9.07242 9.00391 9.32768C11.4587 8.68954 14.3012 9.8382 15.464 12.2631L27.2213 36.6403L30.0637 38.2995L17.1436 11.4974C15.8516 8.68954 12.6215 7.54088 9.77911 8.81717Z" fill="#EBA352"/>
<path d="M34.5853 47.3612L44.5338 42.6389L25.5412 3.58446C24.2492 0.904254 20.89 -0.372036 18.1768 1.03188C15.4636 2.30817 14.3007 5.62652 15.5928 8.30673L34.5853 47.3612Z" fill="#FFDD67"/>
<path d="M18.1766 0.904202C17.9182 1.03183 17.6598 1.28709 17.4014 1.41472C19.8562 0.776573 22.6986 1.92523 23.8615 4.35018L37.1692 31.918L40.0116 33.5772L25.5411 3.58441C24.2491 0.776573 20.8898 -0.372087 18.1766 0.904202ZM3.18927 19.1551C2.93087 19.2828 2.67246 19.4104 2.41406 19.6657C4.73968 19.0275 7.19451 20.1762 8.22812 22.4735L17.9182 42.5112L20.7606 44.1704L9.90773 21.7077C8.74492 19.0275 5.77329 17.8789 3.18927 19.1551Z" fill="#EBA352"/>
<path d="M68.8237 15.3264C65.3353 12.6462 59.6504 15.5816 56.808 24.7709C54.87 31.1524 54.6116 33.0668 50.4771 34.9812L48.1515 30.259C48.1515 30.259 11.4584 47.7441 12.8796 50.552C12.8796 50.552 17.2724 64.0806 24.7661 70.3345C35.8774 79.779 61.8468 69.6963 63.0097 45.3192C63.6557 31.1524 72.5705 18.2618 68.8237 15.3264Z" fill="#FFDD67"/>
<path d="M68.8241 15.3263C68.178 14.8157 67.4028 14.5605 66.6276 14.4329C66.7568 14.5605 67.0152 14.5605 67.1444 14.6881C71.0205 17.6236 67.0152 24.3879 64.8188 30.5141C63.01 35.364 61.4596 40.3415 61.718 45.1914C62.7516 66.3778 41.175 76.4605 28.2549 72.6317C40.9166 77.8645 64.4312 67.9094 63.3976 45.8296C63.1392 40.9797 64.5604 36.2574 66.4984 31.1523C68.5657 25.0261 72.5709 18.2617 68.8241 15.3263Z" fill="#EBA352"/>
<path d="M51.64 34.4707C43.6295 35.3641 31.8722 46.7231 40.1411 59.1031C34.0686 46.5955 44.0171 38.1719 50.348 35.2365C50.994 34.726 51.64 34.4707 51.64 34.4707Z" fill="#EBA352"/>
</svg>
